<svg width="1363" height="163" viewBox="0 0 1363 163" fill="none" xmlns="http://www.w3.org/2000/svg">
<path d="M0 15C0 6.71573 6.71573 0 15 0H37V163H15C6.71573 163 0 156.284 0 148V15Z" fill="#424242"/>
<rect width="1097" height="163" transform="translate(37)" fill="#F0F0F0"/>
<path d="M101.906 53.9219L94.3945 51.2383V48.0859L104.602 52.375V54.6367L101.906 53.9219ZM94.3945 56.1719L101.918 53.4297L104.602 52.7852V55.0352L94.3945 59.3242V56.1719ZM119.836 46.8555L115.195 61H111.457L117.797 43.9375H120.176L119.836 46.8555ZM123.691 61L119.039 46.8555L118.664 43.9375H121.066L127.441 61H123.691ZM123.48 54.6484V57.4023H114.469V54.6484H123.48ZM132.762 43.9375V61H129.258V43.9375H132.762ZM142.699 57.4961C142.699 57.2539 142.629 57.0352 142.488 56.8398C142.348 56.6445 142.086 56.4648 141.703 56.3008C141.328 56.1289 140.785 55.9727 140.074 55.832C139.434 55.6914 138.836 55.5156 138.281 55.3047C137.734 55.0859 137.258 54.8242 136.852 54.5195C136.453 54.2148 136.141 53.8555 135.914 53.4414C135.688 53.0195 135.574 52.5391 135.574 52C135.574 51.4688 135.688 50.9688 135.914 50.5C136.148 50.0312 136.48 49.6172 136.91 49.2578C137.348 48.8906 137.879 48.6055 138.504 48.4023C139.137 48.1914 139.848 48.0859 140.637 48.0859C141.738 48.0859 142.684 48.2617 143.473 48.6133C144.27 48.9648 144.879 49.4492 145.301 50.0664C145.73 50.6758 145.945 51.3711 145.945 52.1523H142.57C142.57 51.8242 142.5 51.5312 142.359 51.2734C142.227 51.0078 142.016 50.8008 141.727 50.6523C141.445 50.4961 141.078 50.418 140.625 50.418C140.25 50.418 139.926 50.4844 139.652 50.6172C139.379 50.7422 139.168 50.9141 139.02 51.1328C138.879 51.3438 138.809 51.5781 138.809 51.8359C138.809 52.0312 138.848 52.207 138.926 52.3633C139.012 52.5117 139.148 52.6484 139.336 52.7734C139.523 52.8984 139.766 53.0156 140.062 53.125C140.367 53.2266 140.742 53.3203 141.188 53.4062C142.102 53.5938 142.918 53.8398 143.637 54.1445C144.355 54.4414 144.926 54.8477 145.348 55.3633C145.77 55.8711 145.98 56.5391 145.98 57.3672C145.98 57.9297 145.855 58.4453 145.605 58.9141C145.355 59.3828 144.996 59.793 144.527 60.1445C144.059 60.4883 143.496 60.7578 142.84 60.9531C142.191 61.1406 141.461 61.2344 140.648 61.2344C139.469 61.2344 138.469 61.0234 137.648 60.6016C136.836 60.1797 136.219 59.6445 135.797 58.9961C135.383 58.3398 135.176 57.668 135.176 56.9805H138.375C138.391 57.4414 138.508 57.8125 138.727 58.0938C138.953 58.375 139.238 58.5781 139.582 58.7031C139.934 58.8281 140.312 58.8906 140.719 58.8906C141.156 58.8906 141.52 58.832 141.809 58.7148C142.098 58.5898 142.316 58.4258 142.465 58.2227C142.621 58.0117 142.699 57.7695 142.699 57.4961ZM155.027 57.4961C155.027 57.2539 154.957 57.0352 154.816 56.8398C154.676 56.6445 154.414 56.4648 154.031 56.3008C153.656 56.1289 153.113 55.9727 152.402 55.832C151.762 55.6914 151.164 55.5156 150.609 55.3047C150.062 55.0859 149.586 54.8242 149.18 54.5195C148.781 54.2148 148.469 53.8555 148.242 53.4414C148.016 53.0195 147.902 52.5391 147.902 52C147.902 51.4688 148.016 50.9688 148.242 50.5C148.477 50.0312 148.809 49.6172 149.238 49.2578C149.676 48.8906 150.207 48.6055 150.832 48.4023C151.465 48.1914 152.176 48.0859 152.965 48.0859C154.066 48.0859 155.012 48.2617 155.801 48.6133C156.598 48.9648 157.207 49.4492 157.629 50.0664C158.059 50.6758 158.273 51.3711 158.273 52.1523H154.898C154.898 51.8242 154.828 51.5312 154.688 51.2734C154.555 51.0078 154.344 50.8008 154.055 50.6523C153.773 50.4961 153.406 50.418 152.953 50.418C152.578 50.418 152.254 50.4844 151.98 50.6172C151.707 50.7422 151.496 50.9141 151.348 51.1328C151.207 51.3438 151.137 51.5781 151.137 51.8359C151.137 52.0312 151.176 52.207 151.254 52.3633C151.34 52.5117 151.477 52.6484 151.664 52.7734C151.852 52.8984 152.094 53.0156 152.391 53.125C152.695 53.2266 153.07 53.3203 153.516 53.4062C154.43 53.5938 155.246 53.8398 155.965 54.1445C156.684 54.4414 157.254 54.8477 157.676 55.3633C158.098 55.8711 158.309 56.5391 158.309 57.3672C158.309 57.9297 158.184 58.4453 157.934 58.9141C157.684 59.3828 157.324 59.793 156.855 60.1445C156.387 60.4883 155.824 60.7578 155.168 60.9531C154.52 61.1406 153.789 61.2344 152.977 61.2344C151.797 61.2344 150.797 61.0234 149.977 60.6016C149.164 60.1797 148.547 59.6445 148.125 58.9961C147.711 58.3398 147.504 57.668 147.504 56.9805H150.703C150.719 57.4414 150.836 57.8125 151.055 58.0938C151.281 58.375 151.566 58.5781 151.91 58.7031C152.262 58.8281 152.641 58.8906 153.047 58.8906C153.484 58.8906 153.848 58.832 154.137 58.7148C154.426 58.5898 154.645 58.4258 154.793 58.2227C154.949 58.0117 155.027 57.7695 155.027 57.4961ZM164.062 48.3203V61H160.676V48.3203H164.062ZM160.465 45.0156C160.465 44.5234 160.637 44.1172 160.98 43.7969C161.324 43.4766 161.785 43.3164 162.363 43.3164C162.934 43.3164 163.391 43.4766 163.734 43.7969C164.086 44.1172 164.262 44.5234 164.262 45.0156C164.262 45.5078 164.086 45.9141 163.734 46.2344C163.391 46.5547 162.934 46.7148 162.363 46.7148C161.785 46.7148 161.324 46.5547 160.98 46.2344C160.637 45.9141 160.465 45.5078 160.465 45.0156ZM173.707 57.4961C173.707 57.2539 173.637 57.0352 173.496 56.8398C173.355 56.6445 173.094 56.4648 172.711 56.3008C172.336 56.1289 171.793 55.9727 171.082 55.832C170.441 55.6914 169.844 55.5156 169.289 55.3047C168.742 55.0859 168.266 54.8242 167.859 54.5195C167.461 54.2148 167.148 53.8555 166.922 53.4414C166.695 53.0195 166.582 52.5391 166.582 52C166.582 51.4688 166.695 50.9688 166.922 50.5C167.156 50.0312 167.488 49.6172 167.918 49.2578C168.355 48.8906 168.887 48.6055 169.512 48.4023C170.145 48.1914 170.855 48.0859 171.645 48.0859C172.746 48.0859 173.691 48.2617 174.48 48.6133C175.277 48.9648 175.887 49.4492 176.309 50.0664C176.738 50.6758 176.953 51.3711 176.953 52.1523H173.578C173.578 51.8242 173.508 51.5312 173.367 51.2734C173.234 51.0078 173.023 50.8008 172.734 50.6523C172.453 50.4961 172.086 50.418 171.633 50.418C171.258 50.418 170.934 50.4844 170.66 50.6172C170.387 50.7422 170.176 50.9141 170.027 51.1328C169.887 51.3438 169.816 51.5781 169.816 51.8359C169.816 52.0312 169.855 52.207 169.934 52.3633C170.02 52.5117 170.156 52.6484 170.344 52.7734C170.531 52.8984 170.773 53.0156 171.07 53.125C171.375 53.2266 171.75 53.3203 172.195 53.4062C173.109 53.5938 173.926 53.8398 174.645 54.1445C175.363 54.4414 175.934 54.8477 176.355 55.3633C176.777 55.8711 176.988 56.5391 176.988 57.3672C176.988 57.9297 176.863 58.4453 176.613 58.9141C176.363 59.3828 176.004 59.793 175.535 60.1445C175.066 60.4883 174.504 60.7578 173.848 60.9531C173.199 61.1406 172.469 61.2344 171.656 61.2344C170.477 61.2344 169.477 61.0234 168.656 60.6016C167.844 60.1797 167.227 59.6445 166.805 58.9961C166.391 58.3398 166.184 57.668 166.184 56.9805H169.383C169.398 57.4414 169.516 57.8125 169.734 58.0938C169.961 58.375 170.246 58.5781 170.59 58.7031C170.941 58.8281 171.32 58.8906 171.727 58.8906C172.164 58.8906 172.527 58.832 172.816 58.7148C173.105 58.5898 173.324 58.4258 173.473 58.2227C173.629 58.0117 173.707 57.7695 173.707 57.4961ZM185.391 48.3203V50.7109H178.008V48.3203H185.391ZM179.836 45.1914H183.211V57.1797C183.211 57.5469 183.258 57.8281 183.352 58.0234C183.453 58.2188 183.602 58.3555 183.797 58.4336C183.992 58.5039 184.238 58.5391 184.535 58.5391C184.746 58.5391 184.934 58.5312 185.098 58.5156C185.27 58.4922 185.414 58.4688 185.531 58.4453L185.543 60.9297C185.254 61.0234 184.941 61.0977 184.605 61.1523C184.27 61.207 183.898 61.2344 183.492 61.2344C182.75 61.2344 182.102 61.1133 181.547 60.8711C181 60.6211 180.578 60.2227 180.281 59.6758C179.984 59.1289 179.836 58.4102 179.836 57.5195V45.1914Z" fill="#888888"/>
<path d="M118.594 98.4219V104.75H101.086V98.4219H118.594ZM103.828 84.875V119H95.6016V84.875H103.828ZM124.125 84.875V119H115.922V84.875H124.125ZM127.992 106.578V106.086C127.992 104.227 128.258 102.516 128.789 100.953C129.32 99.375 130.102 98.0078 131.133 96.8516C132.164 95.6953 133.438 94.7969 134.953 94.1562C136.469 93.5 138.219 93.1719 140.203 93.1719C142.203 93.1719 143.961 93.5 145.477 94.1562C147.008 94.7969 148.289 95.6953 149.32 96.8516C150.352 98.0078 151.133 99.375 151.664 100.953C152.195 102.516 152.461 104.227 152.461 106.086V106.578C152.461 108.422 152.195 110.133 151.664 111.711C151.133 113.273 150.352 114.641 149.32 115.812C148.289 116.969 147.016 117.867 145.5 118.508C143.984 119.148 142.234 119.469 140.25 119.469C138.266 119.469 136.508 119.148 134.977 118.508C133.445 117.867 132.164 116.969 131.133 115.812C130.102 114.641 129.32 113.273 128.789 111.711C128.258 110.133 127.992 108.422 127.992 106.578ZM135.891 106.086V106.578C135.891 107.531 135.961 108.422 136.102 109.25C136.242 110.078 136.477 110.805 136.805 111.43C137.133 112.039 137.578 112.516 138.141 112.859C138.703 113.203 139.406 113.375 140.25 113.375C141.078 113.375 141.766 113.203 142.312 112.859C142.875 112.516 143.32 112.039 143.648 111.43C143.977 110.805 144.211 110.078 144.352 109.25C144.492 108.422 144.562 107.531 144.562 106.578V106.086C144.562 105.164 144.492 104.297 144.352 103.484C144.211 102.656 143.977 101.93 143.648 101.305C143.32 100.664 142.875 100.164 142.312 99.8047C141.75 99.4453 141.047 99.2656 140.203 99.2656C139.375 99.2656 138.68 99.4453 138.117 99.8047C137.57 100.164 137.133 100.664 136.805 101.305C136.477 101.93 136.242 102.656 136.102 103.484C135.961 104.297 135.891 105.164 135.891 106.086ZM163.688 111.453L168.375 93.6406H173.32L171.562 102.57L166.922 119H162.961L163.688 111.453ZM161.836 93.6406L164.742 111.312L165.07 119H160.266L154.266 93.6406H161.836ZM177.492 110.938L180.422 93.6406H187.992L182.039 119H177.234L177.492 110.938ZM173.883 93.6406L178.617 111.406L179.344 119H175.336L170.789 102.617L169.102 93.6406H173.883ZM218.297 84.875V119H210.07V84.875H218.297ZM228.562 84.875V91.2266H200.039V84.875H228.562ZM225.773 106.578V106.086C225.773 104.227 226.039 102.516 226.57 100.953C227.102 99.375 227.883 98.0078 228.914 96.8516C229.945 95.6953 231.219 94.7969 232.734 94.1562C234.25 93.5 236 93.1719 237.984 93.1719C239.984 93.1719 241.742 93.5 243.258 94.1562C244.789 94.7969 246.07 95.6953 247.102 96.8516C248.133 98.0078 248.914 99.375 249.445 100.953C249.977 102.516 250.242 104.227 250.242 106.086V106.578C250.242 108.422 249.977 110.133 249.445 111.711C248.914 113.273 248.133 114.641 247.102 115.812C246.07 116.969 244.797 117.867 243.281 118.508C241.766 119.148 240.016 119.469 238.031 119.469C236.047 119.469 234.289 119.148 232.758 118.508C231.227 117.867 229.945 116.969 228.914 115.812C227.883 114.641 227.102 113.273 226.57 111.711C226.039 110.133 225.773 108.422 225.773 106.578ZM233.672 106.086V106.578C233.672 107.531 233.742 108.422 233.883 109.25C234.023 110.078 234.258 110.805 234.586 111.43C234.914 112.039 235.359 112.516 235.922 112.859C236.484 113.203 237.188 113.375 238.031 113.375C238.859 113.375 239.547 113.203 240.094 112.859C240.656 112.516 241.102 112.039 241.43 111.43C241.758 110.805 241.992 110.078 242.133 109.25C242.273 108.422 242.344 107.531 242.344 106.578V106.086C242.344 105.164 242.273 104.297 242.133 103.484C241.992 102.656 241.758 101.93 241.43 101.305C241.102 100.664 240.656 100.164 240.094 99.8047C239.531 99.4453 238.828 99.2656 237.984 99.2656C237.156 99.2656 236.461 99.4453 235.898 99.8047C235.352 100.164 234.914 100.664 234.586 101.305C234.258 101.93 234.023 102.656 233.883 103.484C233.742 104.297 233.672 105.164 233.672 106.086ZM266.086 84.875H279.516C282.141 84.875 284.422 85.2656 286.359 86.0469C288.297 86.8281 289.789 87.9844 290.836 89.5156C291.898 91.0469 292.43 92.9375 292.43 95.1875C292.43 97.1406 292.125 98.7734 291.516 100.086C290.906 101.398 290.055 102.484 288.961 103.344C287.883 104.188 286.625 104.883 285.188 105.43L282.492 106.953H271.219L271.172 100.602H279.516C280.562 100.602 281.43 100.414 282.117 100.039C282.805 99.6641 283.32 99.1328 283.664 98.4453C284.023 97.7422 284.203 96.9062 284.203 95.9375C284.203 94.9531 284.023 94.1094 283.664 93.4062C283.305 92.7031 282.773 92.1641 282.07 91.7891C281.383 91.4141 280.531 91.2266 279.516 91.2266H274.312V119H266.086V84.875ZM284.766 119L277.219 103.906L285.938 103.859L293.578 118.648V119H284.766ZM311.836 112.836V93.6406H319.758V119H312.352L311.836 112.836ZM312.586 107.68L314.648 107.633C314.648 109.336 314.445 110.914 314.039 112.367C313.633 113.805 313.031 115.055 312.234 116.117C311.453 117.18 310.484 118.008 309.328 118.602C308.188 119.18 306.867 119.469 305.367 119.469C304.117 119.469 302.969 119.297 301.922 118.953C300.891 118.594 300 118.039 299.25 117.289C298.5 116.523 297.914 115.547 297.492 114.359C297.086 113.156 296.883 111.719 296.883 110.047V93.6406H304.781V110.094C304.781 110.656 304.852 111.141 304.992 111.547C305.133 111.953 305.336 112.297 305.602 112.578C305.867 112.844 306.195 113.047 306.586 113.188C306.992 113.312 307.453 113.375 307.969 113.375C309.156 113.375 310.086 113.125 310.758 112.625C311.43 112.125 311.898 111.445 312.164 110.586C312.445 109.727 312.586 108.758 312.586 107.68ZM331.875 99.0547V119H323.977V93.6406H331.383L331.875 99.0547ZM330.938 105.453L329.086 105.5C329.086 103.562 329.32 101.836 329.789 100.32C330.258 98.7891 330.922 97.4922 331.781 96.4297C332.641 95.3672 333.664 94.5625 334.852 94.0156C336.055 93.4531 337.391 93.1719 338.859 93.1719C340.031 93.1719 341.102 93.3438 342.07 93.6875C343.055 94.0312 343.898 94.5859 344.602 95.3516C345.32 96.1172 345.867 97.1328 346.242 98.3984C346.633 99.6484 346.828 101.195 346.828 103.039V119H338.883V103.016C338.883 102 338.742 101.227 338.461 100.695C338.18 100.148 337.773 99.7734 337.242 99.5703C336.711 99.3672 336.062 99.2656 335.297 99.2656C334.484 99.2656 333.797 99.4219 333.234 99.7344C332.672 100.047 332.219 100.484 331.875 101.047C331.547 101.594 331.305 102.242 331.148 102.992C331.008 103.742 330.938 104.562 330.938 105.453ZM363.773 108.195H357.047C357.047 106.82 357.141 105.609 357.328 104.562C357.531 103.5 357.875 102.547 358.359 101.703C358.844 100.859 359.5 100.078 360.328 99.3594C361.062 98.75 361.695 98.1641 362.227 97.6016C362.758 97.0391 363.164 96.4688 363.445 95.8906C363.727 95.3125 363.867 94.6953 363.867 94.0391C363.867 93.2266 363.75 92.5625 363.516 92.0469C363.297 91.5312 362.961 91.1484 362.508 90.8984C362.07 90.6328 361.516 90.5 360.844 90.5C360.297 90.5 359.781 90.6328 359.297 90.8984C358.828 91.1641 358.445 91.5781 358.148 92.1406C357.852 92.6875 357.688 93.4141 357.656 94.3203H349.711C349.758 91.9922 350.273 90.1016 351.258 88.6484C352.258 87.1797 353.586 86.1094 355.242 85.4375C356.914 84.75 358.781 84.4062 360.844 84.4062C363.125 84.4062 365.086 84.7578 366.727 85.4609C368.367 86.1641 369.625 87.2109 370.5 88.6016C371.375 89.9766 371.812 91.6719 371.812 93.6875C371.812 95.0312 371.555 96.2031 371.039 97.2031C370.539 98.1875 369.859 99.1094 369 99.9688C368.156 100.812 367.211 101.719 366.164 102.688C365.258 103.484 364.641 104.297 364.312 105.125C363.984 105.938 363.805 106.961 363.773 108.195ZM356.086 115.32C356.086 114.195 356.492 113.258 357.305 112.508C358.117 111.742 359.172 111.359 360.469 111.359C361.766 111.359 362.82 111.742 363.633 112.508C364.445 113.258 364.852 114.195 364.852 115.32C364.852 116.445 364.445 117.391 363.633 118.156C362.82 118.906 361.766 119.281 360.469 119.281C359.172 119.281 358.117 118.906 357.305 118.156C356.492 117.391 356.086 116.445 356.086 115.32Z" fill="black"/>
<path d="M1134 0H1348C1356.28 0 1363 6.71573 1363 15V148C1363 156.284 1356.28 163 1348 163H1134V0Z" fill="#F08080"/>
<path d="M1260.62 78.8078C1263.81 78.8078 1266.93 79.7552 1269.59 81.5302C1272.25 83.3052 1274.32 85.8281 1275.54 88.7798C1276.76 91.7315 1277.08 94.9795 1276.46 98.1131C1275.84 101.247 1274.3 104.125 1272.04 106.384C1269.78 108.643 1266.9 110.182 1263.77 110.805C1260.63 111.428 1257.39 111.108 1254.43 109.886C1251.48 108.663 1248.96 106.593 1247.18 103.936C1245.41 101.28 1244.46 98.1565 1244.46 94.9616C1244.46 90.6774 1246.16 86.5686 1249.19 83.5392C1252.22 80.5097 1256.33 78.8078 1260.62 78.8078ZM1260.62 73.4232C1256.36 73.4232 1252.19 74.6864 1248.65 77.0531C1245.11 79.4198 1242.35 82.7836 1240.72 86.7192C1239.09 90.6549 1238.66 94.9855 1239.49 99.1636C1240.32 103.342 1242.37 107.179 1245.39 110.192C1248.4 113.204 1252.24 115.255 1256.41 116.086C1260.59 116.917 1264.92 116.491 1268.86 114.861C1272.79 113.23 1276.16 110.47 1278.52 106.928C1280.89 103.386 1282.15 99.2215 1282.15 94.9616C1282.15 89.2493 1279.88 83.7709 1275.85 79.7317C1271.81 75.6924 1266.33 73.4232 1260.62 73.4232Z" fill="white"/>
<path d="M1274.08 46.4999H1220.23C1218.8 46.4999 1217.43 47.0672 1216.42 48.0771C1215.41 49.0869 1214.85 50.4565 1214.85 51.8845V105.731C1214.85 107.159 1215.41 108.528 1216.42 109.538C1217.43 110.548 1218.8 111.115 1220.23 111.115H1231V105.731H1220.23V68.0383H1279.46V51.8845C1279.46 50.4565 1278.89 49.0869 1277.88 48.0771C1276.87 47.0672 1275.5 46.4999 1274.08 46.4999ZM1220.23 62.6537V51.8845H1274.08V62.6537H1220.23Z" fill="white"/>
<path d="M1255.23 86.8848V103.039L1268.69 94.9617L1255.23 86.8848Z" fill="white"/>
</svg>
