<svg width="1363" height="297" viewBox="0 0 1363 297" fill="none" xmlns="http://www.w3.org/2000/svg">
<path d="M0 15C0 6.71573 6.71573 0 15 0H37V297H15C6.71573 297 0 290.284 0 282V15Z" fill="#F08080"/>
<path d="M37 0H1363V297H37V0Z" fill="#F0F0F0"/>
<path d="M97.6934 49.4062H102.158L108.732 68.1973L115.307 49.4062H119.771L110.525 75H106.939L97.6934 49.4062ZM95.2852 49.4062H99.7324L100.541 67.7227V75H95.2852V49.4062ZM117.732 49.4062H122.197V75H116.924V67.7227L117.732 49.4062ZM131.848 55.9805V75H126.768V55.9805H131.848ZM126.451 51.0234C126.451 50.2852 126.709 49.6758 127.225 49.1953C127.74 48.7148 128.432 48.4746 129.299 48.4746C130.154 48.4746 130.84 48.7148 131.355 49.1953C131.883 49.6758 132.146 50.2852 132.146 51.0234C132.146 51.7617 131.883 52.3711 131.355 52.8516C130.84 53.332 130.154 53.5723 129.299 53.5723C128.432 53.5723 127.74 53.332 127.225 52.8516C126.709 52.3711 126.451 51.7617 126.451 51.0234ZM141.094 60.1289V75H136.031V55.9805H140.795L141.094 60.1289ZM146.824 55.8574L146.736 60.5508C146.49 60.5156 146.191 60.4863 145.84 60.4629C145.5 60.4277 145.189 60.4102 144.908 60.4102C144.193 60.4102 143.572 60.5039 143.045 60.6914C142.529 60.8672 142.096 61.1309 141.744 61.4824C141.404 61.834 141.146 62.2617 140.971 62.7656C140.807 63.2695 140.713 63.8438 140.689 64.4883L139.67 64.1719C139.67 62.9414 139.793 61.8105 140.039 60.7793C140.285 59.7363 140.643 58.8281 141.111 58.0547C141.592 57.2812 142.178 56.6836 142.869 56.2617C143.561 55.8398 144.352 55.6289 145.242 55.6289C145.523 55.6289 145.811 55.6523 146.104 55.6992C146.396 55.7344 146.637 55.7871 146.824 55.8574ZM156 71.3086L160.219 55.9805H165.51L159.094 75H155.895L156 71.3086ZM153.1 55.9805L157.336 71.3262L157.424 75H154.207L147.791 55.9805H153.1ZM177.762 70.7109V62.2383C177.762 61.6289 177.662 61.1074 177.463 60.6738C177.264 60.2285 176.953 59.8828 176.531 59.6367C176.121 59.3906 175.588 59.2676 174.932 59.2676C174.369 59.2676 173.883 59.3672 173.473 59.5664C173.062 59.7539 172.746 60.0293 172.523 60.3926C172.301 60.7441 172.189 61.1602 172.189 61.6406H167.127C167.127 60.832 167.314 60.0645 167.689 59.3379C168.064 58.6113 168.609 57.9727 169.324 57.4219C170.039 56.8594 170.889 56.4199 171.873 56.1035C172.869 55.7871 173.982 55.6289 175.213 55.6289C176.689 55.6289 178.002 55.875 179.15 56.3672C180.299 56.8594 181.201 57.5977 181.857 58.582C182.525 59.5664 182.859 60.7969 182.859 62.2734V70.4121C182.859 71.4551 182.924 72.3105 183.053 72.9785C183.182 73.6348 183.369 74.209 183.615 74.7012V75H178.5C178.254 74.4844 178.066 73.8398 177.938 73.0664C177.82 72.2812 177.762 71.4961 177.762 70.7109ZM178.43 63.416L178.465 66.2812H175.635C174.967 66.2812 174.387 66.3574 173.895 66.5098C173.402 66.6621 172.998 66.8789 172.682 67.1602C172.365 67.4297 172.131 67.7461 171.979 68.1094C171.838 68.4727 171.768 68.8711 171.768 69.3047C171.768 69.7383 171.867 70.1309 172.066 70.4824C172.266 70.8223 172.553 71.0918 172.928 71.291C173.303 71.4785 173.742 71.5723 174.246 71.5723C175.008 71.5723 175.67 71.4199 176.232 71.1152C176.795 70.8105 177.229 70.4355 177.533 69.9902C177.85 69.5449 178.014 69.123 178.025 68.7246L179.361 70.8691C179.174 71.3496 178.916 71.8477 178.588 72.3633C178.271 72.8789 177.867 73.3652 177.375 73.8223C176.883 74.2676 176.291 74.6367 175.6 74.9297C174.908 75.2109 174.088 75.3516 173.139 75.3516C171.932 75.3516 170.836 75.1113 169.852 74.6309C168.879 74.1387 168.105 73.4648 167.531 72.6094C166.969 71.7422 166.688 70.7578 166.688 69.6562C166.688 68.6602 166.875 67.7754 167.25 67.002C167.625 66.2285 168.176 65.5781 168.902 65.0508C169.641 64.5117 170.561 64.1074 171.662 63.8379C172.764 63.5566 174.041 63.416 175.494 63.416H178.43ZM196.078 55.9805V59.5664H185.004V55.9805H196.078ZM187.746 51.2871H192.809V69.2695C192.809 69.8203 192.879 70.2422 193.02 70.5352C193.172 70.8281 193.395 71.0332 193.688 71.1504C193.98 71.2559 194.35 71.3086 194.795 71.3086C195.111 71.3086 195.393 71.2969 195.639 71.2734C195.896 71.2383 196.113 71.2031 196.289 71.168L196.307 74.8945C195.873 75.0352 195.404 75.1465 194.9 75.2285C194.396 75.3105 193.84 75.3516 193.23 75.3516C192.117 75.3516 191.145 75.1699 190.312 74.8066C189.492 74.4316 188.859 73.834 188.414 73.0137C187.969 72.1934 187.746 71.1152 187.746 69.7793V51.2871ZM218.262 63.7676H211.688L211.652 60.1465H217.172C218.145 60.1465 218.941 60.0234 219.562 59.7773C220.184 59.5195 220.646 59.1504 220.951 58.6699C221.268 58.1777 221.426 57.5801 221.426 56.877C221.426 56.0801 221.273 55.4355 220.969 54.9434C220.676 54.4512 220.213 54.0938 219.58 53.8711C218.959 53.6484 218.156 53.5371 217.172 53.5371H213.516V75H208.242V49.4062H217.172C218.66 49.4062 219.99 49.5469 221.162 49.8281C222.346 50.1094 223.348 50.5371 224.168 51.1113C224.988 51.6855 225.615 52.4121 226.049 53.291C226.482 54.1582 226.699 55.1895 226.699 56.3848C226.699 57.4395 226.459 58.4121 225.979 59.3027C225.51 60.1934 224.766 60.9199 223.746 61.4824C222.738 62.0449 221.42 62.3555 219.791 62.4141L218.262 63.7676ZM218.033 75H210.246L212.303 70.8867H218.033C218.959 70.8867 219.715 70.7402 220.301 70.4473C220.887 70.1426 221.32 69.7324 221.602 69.2168C221.883 68.7012 222.023 68.1094 222.023 67.4414C222.023 66.6914 221.895 66.041 221.637 65.4902C221.391 64.9395 220.992 64.5176 220.441 64.2246C219.891 63.9199 219.164 63.7676 218.262 63.7676H213.182L213.217 60.1465H219.545L220.758 61.5703C222.316 61.5469 223.57 61.8223 224.52 62.3965C225.48 62.959 226.178 63.6914 226.611 64.5938C227.057 65.4961 227.279 66.4629 227.279 67.4941C227.279 69.1348 226.922 70.5176 226.207 71.6426C225.492 72.7559 224.443 73.5938 223.061 74.1562C221.689 74.7188 220.014 75 218.033 75ZM241.184 70.7109V62.2383C241.184 61.6289 241.084 61.1074 240.885 60.6738C240.686 60.2285 240.375 59.8828 239.953 59.6367C239.543 59.3906 239.01 59.2676 238.354 59.2676C237.791 59.2676 237.305 59.3672 236.895 59.5664C236.484 59.7539 236.168 60.0293 235.945 60.3926C235.723 60.7441 235.611 61.1602 235.611 61.6406H230.549C230.549 60.832 230.736 60.0645 231.111 59.3379C231.486 58.6113 232.031 57.9727 232.746 57.4219C233.461 56.8594 234.311 56.4199 235.295 56.1035C236.291 55.7871 237.404 55.6289 238.635 55.6289C240.111 55.6289 241.424 55.875 242.572 56.3672C243.721 56.8594 244.623 57.5977 245.279 58.582C245.947 59.5664 246.281 60.7969 246.281 62.2734V70.4121C246.281 71.4551 246.346 72.3105 246.475 72.9785C246.604 73.6348 246.791 74.209 247.037 74.7012V75H241.922C241.676 74.4844 241.488 73.8398 241.359 73.0664C241.242 72.2812 241.184 71.4961 241.184 70.7109ZM241.852 63.416L241.887 66.2812H239.057C238.389 66.2812 237.809 66.3574 237.316 66.5098C236.824 66.6621 236.42 66.8789 236.104 67.1602C235.787 67.4297 235.553 67.7461 235.4 68.1094C235.26 68.4727 235.189 68.8711 235.189 69.3047C235.189 69.7383 235.289 70.1309 235.488 70.4824C235.688 70.8223 235.975 71.0918 236.35 71.291C236.725 71.4785 237.164 71.5723 237.668 71.5723C238.43 71.5723 239.092 71.4199 239.654 71.1152C240.217 70.8105 240.65 70.4355 240.955 69.9902C241.271 69.5449 241.436 69.123 241.447 68.7246L242.783 70.8691C242.596 71.3496 242.338 71.8477 242.01 72.3633C241.693 72.8789 241.289 73.3652 240.797 73.8223C240.305 74.2676 239.713 74.6367 239.021 74.9297C238.33 75.2109 237.51 75.3516 236.561 75.3516C235.354 75.3516 234.258 75.1113 233.273 74.6309C232.301 74.1387 231.527 73.4648 230.953 72.6094C230.391 71.7422 230.109 70.7578 230.109 69.6562C230.109 68.6602 230.297 67.7754 230.672 67.002C231.047 66.2285 231.598 65.5781 232.324 65.0508C233.062 64.5117 233.982 64.1074 235.084 63.8379C236.186 63.5566 237.463 63.416 238.916 63.416H241.852ZM255.246 60.1289V75H250.184V55.9805H254.947L255.246 60.1289ZM260.977 55.8574L260.889 60.5508C260.643 60.5156 260.344 60.4863 259.992 60.4629C259.652 60.4277 259.342 60.4102 259.061 60.4102C258.346 60.4102 257.725 60.5039 257.197 60.6914C256.682 60.8672 256.248 61.1309 255.896 61.4824C255.557 61.834 255.299 62.2617 255.123 62.7656C254.959 63.2695 254.865 63.8438 254.842 64.4883L253.822 64.1719C253.822 62.9414 253.945 61.8105 254.191 60.7793C254.438 59.7363 254.795 58.8281 255.264 58.0547C255.744 57.2812 256.33 56.6836 257.021 56.2617C257.713 55.8398 258.504 55.6289 259.395 55.6289C259.676 55.6289 259.963 55.6523 260.256 55.6992C260.549 55.7344 260.789 55.7871 260.977 55.8574ZM273.035 70.7109V62.2383C273.035 61.6289 272.936 61.1074 272.736 60.6738C272.537 60.2285 272.227 59.8828 271.805 59.6367C271.395 59.3906 270.861 59.2676 270.205 59.2676C269.643 59.2676 269.156 59.3672 268.746 59.5664C268.336 59.7539 268.02 60.0293 267.797 60.3926C267.574 60.7441 267.463 61.1602 267.463 61.6406H262.4C262.4 60.832 262.588 60.0645 262.963 59.3379C263.338 58.6113 263.883 57.9727 264.598 57.4219C265.312 56.8594 266.162 56.4199 267.146 56.1035C268.143 55.7871 269.256 55.6289 270.486 55.6289C271.963 55.6289 273.275 55.875 274.424 56.3672C275.572 56.8594 276.475 57.5977 277.131 58.582C277.799 59.5664 278.133 60.7969 278.133 62.2734V70.4121C278.133 71.4551 278.197 72.3105 278.326 72.9785C278.455 73.6348 278.643 74.209 278.889 74.7012V75H273.773C273.527 74.4844 273.34 73.8398 273.211 73.0664C273.094 72.2812 273.035 71.4961 273.035 70.7109ZM273.703 63.416L273.738 66.2812H270.908C270.24 66.2812 269.66 66.3574 269.168 66.5098C268.676 66.6621 268.271 66.8789 267.955 67.1602C267.639 67.4297 267.404 67.7461 267.252 68.1094C267.111 68.4727 267.041 68.8711 267.041 69.3047C267.041 69.7383 267.141 70.1309 267.34 70.4824C267.539 70.8223 267.826 71.0918 268.201 71.291C268.576 71.4785 269.016 71.5723 269.52 71.5723C270.281 71.5723 270.943 71.4199 271.506 71.1152C272.068 70.8105 272.502 70.4355 272.807 69.9902C273.123 69.5449 273.287 69.123 273.299 68.7246L274.635 70.8691C274.447 71.3496 274.189 71.8477 273.861 72.3633C273.545 72.8789 273.141 73.3652 272.648 73.8223C272.156 74.2676 271.564 74.6367 270.873 74.9297C270.182 75.2109 269.361 75.3516 268.412 75.3516C267.205 75.3516 266.109 75.1113 265.125 74.6309C264.152 74.1387 263.379 73.4648 262.805 72.6094C262.242 71.7422 261.961 70.7578 261.961 69.6562C261.961 68.6602 262.148 67.7754 262.523 67.002C262.898 66.2285 263.449 65.5781 264.176 65.0508C264.914 64.5117 265.834 64.1074 266.936 63.8379C268.037 63.5566 269.314 63.416 270.768 63.416H273.703ZM287.098 47.9824V75H282.035V47.9824H287.098ZM299.086 55.9805L290.824 65.4023L286.395 69.8848L284.549 66.2285L288.064 61.7637L293.004 55.9805H299.086ZM293.83 75L288.205 66.2109L291.703 63.1523L299.666 75H293.83ZM311.531 70.7109V62.2383C311.531 61.6289 311.432 61.1074 311.232 60.6738C311.033 60.2285 310.723 59.8828 310.301 59.6367C309.891 59.3906 309.357 59.2676 308.701 59.2676C308.139 59.2676 307.652 59.3672 307.242 59.5664C306.832 59.7539 306.516 60.0293 306.293 60.3926C306.07 60.7441 305.959 61.1602 305.959 61.6406H300.896C300.896 60.832 301.084 60.0645 301.459 59.3379C301.834 58.6113 302.379 57.9727 303.094 57.4219C303.809 56.8594 304.658 56.4199 305.643 56.1035C306.639 55.7871 307.752 55.6289 308.982 55.6289C310.459 55.6289 311.771 55.875 312.92 56.3672C314.068 56.8594 314.971 57.5977 315.627 58.582C316.295 59.5664 316.629 60.7969 316.629 62.2734V70.4121C316.629 71.4551 316.693 72.3105 316.822 72.9785C316.951 73.6348 317.139 74.209 317.385 74.7012V75H312.27C312.023 74.4844 311.836 73.8398 311.707 73.0664C311.59 72.2812 311.531 71.4961 311.531 70.7109ZM312.199 63.416L312.234 66.2812H309.404C308.736 66.2812 308.156 66.3574 307.664 66.5098C307.172 66.6621 306.768 66.8789 306.451 67.1602C306.135 67.4297 305.9 67.7461 305.748 68.1094C305.607 68.4727 305.537 68.8711 305.537 69.3047C305.537 69.7383 305.637 70.1309 305.836 70.4824C306.035 70.8223 306.322 71.0918 306.697 71.291C307.072 71.4785 307.512 71.5723 308.016 71.5723C308.777 71.5723 309.439 71.4199 310.002 71.1152C310.564 70.8105 310.998 70.4355 311.303 69.9902C311.619 69.5449 311.783 69.123 311.795 68.7246L313.131 70.8691C312.943 71.3496 312.686 71.8477 312.357 72.3633C312.041 72.8789 311.637 73.3652 311.145 73.8223C310.652 74.2676 310.061 74.6367 309.369 74.9297C308.678 75.2109 307.857 75.3516 306.908 75.3516C305.701 75.3516 304.605 75.1113 303.621 74.6309C302.648 74.1387 301.875 73.4648 301.301 72.6094C300.738 71.7422 300.457 70.7578 300.457 69.6562C300.457 68.6602 300.645 67.7754 301.02 67.002C301.395 66.2285 301.945 65.5781 302.672 65.0508C303.41 64.5117 304.33 64.1074 305.432 63.8379C306.533 63.5566 307.811 63.416 309.264 63.416H312.199ZM329.848 55.9805V59.5664H318.773V55.9805H329.848ZM321.516 51.2871H326.578V69.2695C326.578 69.8203 326.648 70.2422 326.789 70.5352C326.941 70.8281 327.164 71.0332 327.457 71.1504C327.75 71.2559 328.119 71.3086 328.564 71.3086C328.881 71.3086 329.162 71.2969 329.408 71.2734C329.666 71.2383 329.883 71.2031 330.059 71.168L330.076 74.8945C329.643 75.0352 329.174 75.1465 328.67 75.2285C328.166 75.3105 327.609 75.3516 327 75.3516C325.887 75.3516 324.914 75.1699 324.082 74.8066C323.262 74.4316 322.629 73.834 322.184 73.0137C321.738 72.1934 321.516 71.1152 321.516 69.7793V51.2871Z" fill="#888888"/>
<path d="M112.906 108.555L103.199 140H92.8906L107.52 100.188H114.055L112.906 108.555ZM120.945 140L111.211 108.555L109.953 100.188H116.57L131.281 140H120.945ZM120.562 125.152V132.562H100.137V125.152H120.562ZM144.406 100.188V140H134.836V100.188H144.406ZM166.227 131.688C166.227 131.177 166.053 130.74 165.707 130.375C165.379 129.992 164.796 129.646 163.957 129.336C163.118 129.008 161.943 128.68 160.43 128.352C158.99 128.042 157.632 127.632 156.355 127.121C155.098 126.611 153.995 125.991 153.047 125.262C152.099 124.533 151.352 123.667 150.805 122.664C150.276 121.661 150.012 120.513 150.012 119.219C150.012 117.961 150.276 116.776 150.805 115.664C151.352 114.534 152.145 113.54 153.184 112.684C154.241 111.809 155.526 111.125 157.039 110.633C158.552 110.122 160.275 109.867 162.207 109.867C164.868 109.867 167.165 110.277 169.098 111.098C171.03 111.9 172.516 113.03 173.555 114.488C174.612 115.928 175.141 117.596 175.141 119.492H165.926C165.926 118.745 165.798 118.107 165.543 117.578C165.306 117.049 164.914 116.648 164.367 116.375C163.82 116.083 163.091 115.938 162.18 115.938C161.542 115.938 160.958 116.056 160.43 116.293C159.919 116.53 159.509 116.858 159.199 117.277C158.889 117.697 158.734 118.189 158.734 118.754C158.734 119.155 158.826 119.52 159.008 119.848C159.208 120.158 159.509 120.449 159.91 120.723C160.311 120.978 160.822 121.215 161.441 121.434C162.061 121.634 162.809 121.816 163.684 121.98C165.671 122.345 167.53 122.865 169.262 123.539C170.993 124.214 172.397 125.171 173.473 126.41C174.566 127.65 175.113 129.318 175.113 131.414C175.113 132.727 174.812 133.939 174.211 135.051C173.609 136.145 172.743 137.111 171.613 137.949C170.483 138.77 169.125 139.408 167.539 139.863C165.953 140.319 164.167 140.547 162.18 140.547C159.354 140.547 156.966 140.046 155.016 139.043C153.065 138.022 151.589 136.746 150.586 135.215C149.602 133.665 149.109 132.098 149.109 130.512H157.695C157.732 131.423 157.951 132.171 158.352 132.754C158.771 133.337 159.327 133.766 160.02 134.039C160.712 134.312 161.514 134.449 162.426 134.449C163.264 134.449 163.957 134.331 164.504 134.094C165.069 133.857 165.497 133.538 165.789 133.137C166.081 132.717 166.227 132.234 166.227 131.688ZM194.938 131.688C194.938 131.177 194.764 130.74 194.418 130.375C194.09 129.992 193.507 129.646 192.668 129.336C191.829 129.008 190.654 128.68 189.141 128.352C187.701 128.042 186.342 127.632 185.066 127.121C183.809 126.611 182.706 125.991 181.758 125.262C180.81 124.533 180.062 123.667 179.516 122.664C178.987 121.661 178.723 120.513 178.723 119.219C178.723 117.961 178.987 116.776 179.516 115.664C180.062 114.534 180.855 113.54 181.895 112.684C182.952 111.809 184.237 111.125 185.75 110.633C187.263 110.122 188.986 109.867 190.918 109.867C193.579 109.867 195.876 110.277 197.809 111.098C199.741 111.9 201.227 113.03 202.266 114.488C203.323 115.928 203.852 117.596 203.852 119.492H194.637C194.637 118.745 194.509 118.107 194.254 117.578C194.017 117.049 193.625 116.648 193.078 116.375C192.531 116.083 191.802 115.938 190.891 115.938C190.253 115.938 189.669 116.056 189.141 116.293C188.63 116.53 188.22 116.858 187.91 117.277C187.6 117.697 187.445 118.189 187.445 118.754C187.445 119.155 187.536 119.52 187.719 119.848C187.919 120.158 188.22 120.449 188.621 120.723C189.022 120.978 189.533 121.215 190.152 121.434C190.772 121.634 191.52 121.816 192.395 121.98C194.382 122.345 196.241 122.865 197.973 123.539C199.704 124.214 201.108 125.171 202.184 126.41C203.277 127.65 203.824 129.318 203.824 131.414C203.824 132.727 203.523 133.939 202.922 135.051C202.32 136.145 201.454 137.111 200.324 137.949C199.194 138.77 197.836 139.408 196.25 139.863C194.664 140.319 192.878 140.547 190.891 140.547C188.065 140.547 185.677 140.046 183.727 139.043C181.776 138.022 180.299 136.746 179.297 135.215C178.312 133.665 177.82 132.098 177.82 130.512H186.406C186.443 131.423 186.661 132.171 187.062 132.754C187.482 133.337 188.038 133.766 188.73 134.039C189.423 134.312 190.225 134.449 191.137 134.449C191.975 134.449 192.668 134.331 193.215 134.094C193.78 133.857 194.208 133.538 194.5 133.137C194.792 132.717 194.938 132.234 194.938 131.688ZM217.879 110.414V140H208.637V110.414H217.879ZM208.09 102.785C208.09 101.473 208.564 100.397 209.512 99.5586C210.46 98.7201 211.69 98.3008 213.203 98.3008C214.716 98.3008 215.947 98.7201 216.895 99.5586C217.842 100.397 218.316 101.473 218.316 102.785C218.316 104.098 217.842 105.173 216.895 106.012C215.947 106.85 214.716 107.27 213.203 107.27C211.69 107.27 210.46 106.85 209.512 106.012C208.564 105.173 208.09 104.098 208.09 102.785ZM239.07 131.688C239.07 131.177 238.897 130.74 238.551 130.375C238.223 129.992 237.639 129.646 236.801 129.336C235.962 129.008 234.786 128.68 233.273 128.352C231.833 128.042 230.475 127.632 229.199 127.121C227.941 126.611 226.839 125.991 225.891 125.262C224.943 124.533 224.195 123.667 223.648 122.664C223.12 121.661 222.855 120.513 222.855 119.219C222.855 117.961 223.12 116.776 223.648 115.664C224.195 114.534 224.988 113.54 226.027 112.684C227.085 111.809 228.37 111.125 229.883 110.633C231.396 110.122 233.118 109.867 235.051 109.867C237.712 109.867 240.009 110.277 241.941 111.098C243.874 111.9 245.359 113.03 246.398 114.488C247.456 115.928 247.984 117.596 247.984 119.492H238.77C238.77 118.745 238.642 118.107 238.387 117.578C238.15 117.049 237.758 116.648 237.211 116.375C236.664 116.083 235.935 115.938 235.023 115.938C234.385 115.938 233.802 116.056 233.273 116.293C232.763 116.53 232.353 116.858 232.043 117.277C231.733 117.697 231.578 118.189 231.578 118.754C231.578 119.155 231.669 119.52 231.852 119.848C232.052 120.158 232.353 120.449 232.754 120.723C233.155 120.978 233.665 121.215 234.285 121.434C234.905 121.634 235.652 121.816 236.527 121.98C238.514 122.345 240.374 122.865 242.105 123.539C243.837 124.214 245.241 125.171 246.316 126.41C247.41 127.65 247.957 129.318 247.957 131.414C247.957 132.727 247.656 133.939 247.055 135.051C246.453 136.145 245.587 137.111 244.457 137.949C243.327 138.77 241.969 139.408 240.383 139.863C238.797 140.319 237.01 140.547 235.023 140.547C232.198 140.547 229.81 140.046 227.859 139.043C225.909 138.022 224.432 136.746 223.43 135.215C222.445 133.665 221.953 132.098 221.953 130.512H230.539C230.576 131.423 230.794 132.171 231.195 132.754C231.615 133.337 232.171 133.766 232.863 134.039C233.556 134.312 234.358 134.449 235.27 134.449C236.108 134.449 236.801 134.331 237.348 134.094C237.913 133.857 238.341 133.538 238.633 133.137C238.924 132.717 239.07 132.234 239.07 131.688ZM267.863 110.414V116.812H250.035V110.414H267.863ZM253.781 103.059H262.996V130.348C262.996 131.132 263.087 131.742 263.27 132.18C263.452 132.599 263.762 132.9 264.199 133.082C264.655 133.246 265.257 133.328 266.004 133.328C266.533 133.328 266.97 133.319 267.316 133.301C267.663 133.264 267.991 133.219 268.301 133.164V139.754C267.517 140.009 266.697 140.201 265.84 140.328C264.983 140.474 264.072 140.547 263.105 140.547C261.137 140.547 259.451 140.237 258.047 139.617C256.661 138.997 255.604 138.022 254.875 136.691C254.146 135.361 253.781 133.629 253.781 131.496V103.059Z" fill="black"/>
<rect x="93" y="178" width="1214" height="77" rx="10" fill="#D3D3D3"/>
<rect x="111" y="196" width="148" height="41" rx="3" fill="#424242"/>
<path d="M134.234 210.203H139.271C140.255 210.203 141.11 210.35 141.837 210.643C142.563 210.936 143.123 211.369 143.516 211.943C143.914 212.518 144.113 213.227 144.113 214.07C144.113 214.803 143.999 215.415 143.771 215.907C143.542 216.399 143.223 216.807 142.812 217.129C142.408 217.445 141.937 217.706 141.397 217.911L140.387 218.482H136.159L136.142 216.101H139.271C139.663 216.101 139.988 216.03 140.246 215.89C140.504 215.749 140.697 215.55 140.826 215.292C140.961 215.028 141.028 214.715 141.028 214.352C141.028 213.982 140.961 213.666 140.826 213.402C140.691 213.139 140.492 212.937 140.229 212.796C139.971 212.655 139.651 212.585 139.271 212.585H137.319V223H134.234V210.203ZM141.239 223L138.409 217.34L141.679 217.322L144.544 222.868V223H141.239ZM150.441 223.176C149.668 223.176 148.977 223.056 148.367 222.815C147.758 222.569 147.242 222.232 146.82 221.805C146.404 221.377 146.085 220.885 145.862 220.328C145.646 219.771 145.537 219.183 145.537 218.562V218.228C145.537 217.53 145.634 216.886 145.827 216.294C146.021 215.696 146.308 215.175 146.688 214.729C147.069 214.284 147.547 213.938 148.121 213.692C148.695 213.44 149.363 213.314 150.125 213.314C150.799 213.314 151.402 213.423 151.936 213.64C152.469 213.856 152.92 214.167 153.289 214.571C153.664 214.976 153.948 215.465 154.142 216.039C154.341 216.613 154.44 217.258 154.44 217.973V219.177H146.671V217.322H151.549V217.094C151.555 216.777 151.499 216.508 151.382 216.285C151.271 216.062 151.106 215.893 150.89 215.775C150.673 215.658 150.409 215.6 150.099 215.6C149.776 215.6 149.51 215.67 149.299 215.811C149.094 215.951 148.933 216.145 148.815 216.391C148.704 216.631 148.625 216.909 148.578 217.226C148.531 217.542 148.508 217.876 148.508 218.228V218.562C148.508 218.913 148.555 219.232 148.648 219.52C148.748 219.807 148.889 220.053 149.07 220.258C149.258 220.457 149.48 220.612 149.738 220.724C150.002 220.835 150.301 220.891 150.635 220.891C151.039 220.891 151.438 220.814 151.83 220.662C152.223 220.51 152.56 220.258 152.841 219.906L154.186 221.506C153.992 221.781 153.717 222.048 153.359 222.306C153.008 222.563 152.586 222.774 152.094 222.938C151.602 223.097 151.051 223.176 150.441 223.176ZM160.584 220.609V216.689C160.584 216.42 160.546 216.188 160.47 215.995C160.394 215.802 160.273 215.652 160.109 215.547C159.945 215.436 159.726 215.38 159.45 215.38C159.228 215.38 159.037 215.418 158.879 215.494C158.721 215.57 158.601 215.685 158.519 215.837C158.437 215.989 158.396 216.183 158.396 216.417H155.434C155.434 215.978 155.53 215.57 155.724 215.195C155.923 214.814 156.204 214.483 156.567 214.202C156.937 213.921 157.376 213.704 157.886 213.552C158.401 213.394 158.976 213.314 159.608 213.314C160.364 213.314 161.038 213.44 161.63 213.692C162.228 213.944 162.699 214.322 163.045 214.826C163.391 215.324 163.563 215.951 163.563 216.707V220.601C163.563 221.222 163.599 221.693 163.669 222.016C163.739 222.332 163.839 222.61 163.968 222.851V223H160.997C160.856 222.707 160.751 222.35 160.681 221.928C160.616 221.5 160.584 221.061 160.584 220.609ZM160.944 217.19L160.962 218.772H159.652C159.377 218.772 159.143 218.811 158.949 218.887C158.762 218.963 158.609 219.068 158.492 219.203C158.381 219.332 158.299 219.479 158.246 219.643C158.199 219.807 158.176 219.979 158.176 220.161C158.176 220.337 158.217 220.495 158.299 220.636C158.387 220.771 158.504 220.876 158.65 220.952C158.797 221.028 158.961 221.066 159.143 221.066C159.471 221.066 159.749 221.005 159.978 220.882C160.212 220.753 160.391 220.598 160.514 220.416C160.637 220.234 160.698 220.064 160.698 219.906L161.349 221.119C161.231 221.354 161.097 221.591 160.944 221.831C160.798 222.071 160.613 222.294 160.391 222.499C160.174 222.698 159.907 222.862 159.591 222.991C159.274 223.114 158.891 223.176 158.439 223.176C157.854 223.176 157.314 223.056 156.822 222.815C156.336 222.575 155.946 222.241 155.653 221.813C155.36 221.38 155.214 220.882 155.214 220.319C155.214 219.827 155.302 219.388 155.478 219.001C155.659 218.614 155.932 218.286 156.295 218.017C156.658 217.747 157.121 217.542 157.684 217.401C158.246 217.261 158.908 217.19 159.67 217.19H160.944ZM169.224 220.891C169.499 220.891 169.733 220.841 169.927 220.741C170.126 220.636 170.275 220.489 170.375 220.302C170.48 220.108 170.53 219.877 170.524 219.607H173.311C173.316 220.322 173.141 220.949 172.783 221.488C172.432 222.021 171.951 222.438 171.342 222.736C170.738 223.029 170.056 223.176 169.294 223.176C168.55 223.176 167.899 223.056 167.343 222.815C166.786 222.569 166.32 222.229 165.945 221.796C165.576 221.356 165.298 220.844 165.11 220.258C164.929 219.672 164.838 219.036 164.838 218.351V218.148C164.838 217.463 164.929 216.827 165.11 216.241C165.298 215.649 165.576 215.137 165.945 214.703C166.32 214.264 166.783 213.924 167.334 213.684C167.891 213.438 168.538 213.314 169.276 213.314C170.067 213.314 170.765 213.464 171.368 213.763C171.978 214.062 172.455 214.495 172.801 215.063C173.146 215.632 173.316 216.32 173.311 217.129H170.524C170.53 216.842 170.486 216.584 170.393 216.355C170.299 216.127 170.152 215.945 169.953 215.811C169.76 215.67 169.511 215.6 169.206 215.6C168.901 215.6 168.655 215.667 168.468 215.802C168.28 215.937 168.137 216.124 168.037 216.364C167.943 216.599 167.879 216.868 167.844 217.173C167.814 217.478 167.8 217.803 167.8 218.148V218.351C167.8 218.702 167.814 219.033 167.844 219.344C167.879 219.648 167.946 219.918 168.046 220.152C168.146 220.381 168.289 220.562 168.477 220.697C168.664 220.826 168.913 220.891 169.224 220.891ZM179.586 213.49V215.547H173.855V213.49H179.586ZM175.06 211.126H178.021V219.897C178.021 220.149 178.051 220.346 178.109 220.486C178.168 220.621 178.268 220.718 178.408 220.776C178.555 220.829 178.748 220.855 178.988 220.855C179.158 220.855 179.299 220.853 179.41 220.847C179.521 220.835 179.627 220.82 179.727 220.803V222.921C179.475 223.003 179.211 223.064 178.936 223.105C178.66 223.152 178.367 223.176 178.057 223.176C177.424 223.176 176.882 223.076 176.431 222.877C175.985 222.678 175.646 222.364 175.411 221.937C175.177 221.509 175.06 220.952 175.06 220.267V211.126ZM196.074 210.203V223H192.998L188.472 215.037V223H185.387V210.203H188.472L192.998 218.166V210.203H196.074ZM202.824 220.609V216.689C202.824 216.42 202.786 216.188 202.71 215.995C202.634 215.802 202.514 215.652 202.35 215.547C202.186 215.436 201.966 215.38 201.69 215.38C201.468 215.38 201.277 215.418 201.119 215.494C200.961 215.57 200.841 215.685 200.759 215.837C200.677 215.989 200.636 216.183 200.636 216.417H197.674C197.674 215.978 197.771 215.57 197.964 215.195C198.163 214.814 198.444 214.483 198.808 214.202C199.177 213.921 199.616 213.704 200.126 213.552C200.642 213.394 201.216 213.314 201.849 213.314C202.604 213.314 203.278 213.44 203.87 213.692C204.468 213.944 204.939 214.322 205.285 214.826C205.631 215.324 205.804 215.951 205.804 216.707V220.601C205.804 221.222 205.839 221.693 205.909 222.016C205.979 222.332 206.079 222.61 206.208 222.851V223H203.237C203.097 222.707 202.991 222.35 202.921 221.928C202.856 221.5 202.824 221.061 202.824 220.609ZM203.185 217.19L203.202 218.772H201.893C201.617 218.772 201.383 218.811 201.189 218.887C201.002 218.963 200.85 219.068 200.732 219.203C200.621 219.332 200.539 219.479 200.486 219.643C200.439 219.807 200.416 219.979 200.416 220.161C200.416 220.337 200.457 220.495 200.539 220.636C200.627 220.771 200.744 220.876 200.891 220.952C201.037 221.028 201.201 221.066 201.383 221.066C201.711 221.066 201.989 221.005 202.218 220.882C202.452 220.753 202.631 220.598 202.754 220.416C202.877 220.234 202.938 220.064 202.938 219.906L203.589 221.119C203.472 221.354 203.337 221.591 203.185 221.831C203.038 222.071 202.854 222.294 202.631 222.499C202.414 222.698 202.147 222.862 201.831 222.991C201.515 223.114 201.131 223.176 200.68 223.176C200.094 223.176 199.555 223.056 199.062 222.815C198.576 222.575 198.187 222.241 197.894 221.813C197.601 221.38 197.454 220.882 197.454 220.319C197.454 219.827 197.542 219.388 197.718 219.001C197.899 218.614 198.172 218.286 198.535 218.017C198.898 217.747 199.361 217.542 199.924 217.401C200.486 217.261 201.148 217.19 201.91 217.19H203.185ZM212.457 213.49V215.547H206.727V213.49H212.457ZM207.931 211.126H210.893V219.897C210.893 220.149 210.922 220.346 210.98 220.486C211.039 220.621 211.139 220.718 211.279 220.776C211.426 220.829 211.619 220.855 211.859 220.855C212.029 220.855 212.17 220.853 212.281 220.847C212.393 220.835 212.498 220.82 212.598 220.803V222.921C212.346 223.003 212.082 223.064 211.807 223.105C211.531 223.152 211.238 223.176 210.928 223.176C210.295 223.176 209.753 223.076 209.302 222.877C208.856 222.678 208.517 222.364 208.282 221.937C208.048 221.509 207.931 220.952 207.931 220.267V211.126ZM216.764 213.49V223H213.793V213.49H216.764ZM213.617 211.038C213.617 210.616 213.77 210.271 214.074 210.001C214.379 209.731 214.774 209.597 215.261 209.597C215.747 209.597 216.143 209.731 216.447 210.001C216.752 210.271 216.904 210.616 216.904 211.038C216.904 211.46 216.752 211.806 216.447 212.075C216.143 212.345 215.747 212.479 215.261 212.479C214.774 212.479 214.379 212.345 214.074 212.075C213.77 211.806 213.617 211.46 213.617 211.038ZM222.02 220.97L223.892 213.49H227.012L223.9 223H222.055L222.02 220.97ZM220.912 213.49L222.758 220.97L222.74 223H220.886L217.783 213.49H220.912ZM232.373 223.176C231.6 223.176 230.908 223.056 230.299 222.815C229.689 222.569 229.174 222.232 228.752 221.805C228.336 221.377 228.017 220.885 227.794 220.328C227.577 219.771 227.469 219.183 227.469 218.562V218.228C227.469 217.53 227.565 216.886 227.759 216.294C227.952 215.696 228.239 215.175 228.62 214.729C229.001 214.284 229.479 213.938 230.053 213.692C230.627 213.44 231.295 213.314 232.057 213.314C232.73 213.314 233.334 213.423 233.867 213.64C234.4 213.856 234.852 214.167 235.221 214.571C235.596 214.976 235.88 215.465 236.073 216.039C236.272 216.613 236.372 217.258 236.372 217.973V219.177H228.603V217.322H233.48V217.094C233.486 216.777 233.431 216.508 233.313 216.285C233.202 216.062 233.038 215.893 232.821 215.775C232.604 215.658 232.341 215.6 232.03 215.6C231.708 215.6 231.441 215.67 231.23 215.811C231.025 215.951 230.864 216.145 230.747 216.391C230.636 216.631 230.557 216.909 230.51 217.226C230.463 217.542 230.439 217.876 230.439 218.228V218.562C230.439 218.913 230.486 219.232 230.58 219.52C230.68 219.807 230.82 220.053 231.002 220.258C231.189 220.457 231.412 220.612 231.67 220.724C231.934 220.835 232.232 220.891 232.566 220.891C232.971 220.891 233.369 220.814 233.762 220.662C234.154 220.51 234.491 220.258 234.772 219.906L236.117 221.506C235.924 221.781 235.648 222.048 235.291 222.306C234.939 222.563 234.518 222.774 234.025 222.938C233.533 223.097 232.982 223.176 232.373 223.176Z" fill="white"/>
<rect x="111" y="196" width="148" height="41" rx="3" stroke="#424242" stroke-width="4"/>
<rect x="279" y="196" width="111" height="41" rx="3" fill="#424242"/>
<path d="M302.367 210.203H307.403C308.388 210.203 309.243 210.35 309.97 210.643C310.696 210.936 311.256 211.369 311.648 211.943C312.047 212.518 312.246 213.227 312.246 214.07C312.246 214.803 312.132 215.415 311.903 215.907C311.675 216.399 311.355 216.807 310.945 217.129C310.541 217.445 310.069 217.706 309.53 217.911L308.52 218.482H304.292L304.274 216.101H307.403C307.796 216.101 308.121 216.03 308.379 215.89C308.637 215.749 308.83 215.55 308.959 215.292C309.094 215.028 309.161 214.715 309.161 214.352C309.161 213.982 309.094 213.666 308.959 213.402C308.824 213.139 308.625 212.937 308.361 212.796C308.104 212.655 307.784 212.585 307.403 212.585H305.452V223H302.367V210.203ZM309.372 223L306.542 217.34L309.812 217.322L312.677 222.868V223H309.372ZM318.574 223.176C317.801 223.176 317.109 223.056 316.5 222.815C315.891 222.569 315.375 222.232 314.953 221.805C314.537 221.377 314.218 220.885 313.995 220.328C313.778 219.771 313.67 219.183 313.67 218.562V218.228C313.67 217.53 313.767 216.886 313.96 216.294C314.153 215.696 314.44 215.175 314.821 214.729C315.202 214.284 315.68 213.938 316.254 213.692C316.828 213.44 317.496 213.314 318.258 213.314C318.932 213.314 319.535 213.423 320.068 213.64C320.602 213.856 321.053 214.167 321.422 214.571C321.797 214.976 322.081 215.465 322.274 216.039C322.474 216.613 322.573 217.258 322.573 217.973V219.177H314.804V217.322H319.682V217.094C319.688 216.777 319.632 216.508 319.515 216.285C319.403 216.062 319.239 215.893 319.022 215.775C318.806 215.658 318.542 215.6 318.231 215.6C317.909 215.6 317.643 215.67 317.432 215.811C317.227 215.951 317.065 216.145 316.948 216.391C316.837 216.631 316.758 216.909 316.711 217.226C316.664 217.542 316.641 217.876 316.641 218.228V218.562C316.641 218.913 316.688 219.232 316.781 219.52C316.881 219.807 317.021 220.053 317.203 220.258C317.391 220.457 317.613 220.612 317.871 220.724C318.135 220.835 318.434 220.891 318.768 220.891C319.172 220.891 319.57 220.814 319.963 220.662C320.355 220.51 320.692 220.258 320.974 219.906L322.318 221.506C322.125 221.781 321.85 222.048 321.492 222.306C321.141 222.563 320.719 222.774 320.227 222.938C319.734 223.097 319.184 223.176 318.574 223.176ZM328.717 220.609V216.689C328.717 216.42 328.679 216.188 328.603 215.995C328.526 215.802 328.406 215.652 328.242 215.547C328.078 215.436 327.858 215.38 327.583 215.38C327.36 215.38 327.17 215.418 327.012 215.494C326.854 215.57 326.733 215.685 326.651 215.837C326.569 215.989 326.528 216.183 326.528 216.417H323.566C323.566 215.978 323.663 215.57 323.856 215.195C324.056 214.814 324.337 214.483 324.7 214.202C325.069 213.921 325.509 213.704 326.019 213.552C326.534 213.394 327.108 213.314 327.741 213.314C328.497 213.314 329.171 213.44 329.763 213.692C330.36 213.944 330.832 214.322 331.178 214.826C331.523 215.324 331.696 215.951 331.696 216.707V220.601C331.696 221.222 331.731 221.693 331.802 222.016C331.872 222.332 331.972 222.61 332.101 222.851V223H329.13C328.989 222.707 328.884 222.35 328.813 221.928C328.749 221.5 328.717 221.061 328.717 220.609ZM329.077 217.19L329.095 218.772H327.785C327.51 218.772 327.275 218.811 327.082 218.887C326.895 218.963 326.742 219.068 326.625 219.203C326.514 219.332 326.432 219.479 326.379 219.643C326.332 219.807 326.309 219.979 326.309 220.161C326.309 220.337 326.35 220.495 326.432 220.636C326.52 220.771 326.637 220.876 326.783 220.952C326.93 221.028 327.094 221.066 327.275 221.066C327.604 221.066 327.882 221.005 328.11 220.882C328.345 220.753 328.523 220.598 328.646 220.416C328.77 220.234 328.831 220.064 328.831 219.906L329.481 221.119C329.364 221.354 329.229 221.591 329.077 221.831C328.931 222.071 328.746 222.294 328.523 222.499C328.307 222.698 328.04 222.862 327.724 222.991C327.407 223.114 327.023 223.176 326.572 223.176C325.986 223.176 325.447 223.056 324.955 222.815C324.469 222.575 324.079 222.241 323.786 221.813C323.493 221.38 323.347 220.882 323.347 220.319C323.347 219.827 323.435 219.388 323.61 219.001C323.792 218.614 324.064 218.286 324.428 218.017C324.791 217.747 325.254 217.542 325.816 217.401C326.379 217.261 327.041 217.19 327.803 217.19H329.077ZM337.356 220.891C337.632 220.891 337.866 220.841 338.06 220.741C338.259 220.636 338.408 220.489 338.508 220.302C338.613 220.108 338.663 219.877 338.657 219.607H341.443C341.449 220.322 341.273 220.949 340.916 221.488C340.564 222.021 340.084 222.438 339.475 222.736C338.871 223.029 338.188 223.176 337.427 223.176C336.683 223.176 336.032 223.056 335.476 222.815C334.919 222.569 334.453 222.229 334.078 221.796C333.709 221.356 333.431 220.844 333.243 220.258C333.062 219.672 332.971 219.036 332.971 218.351V218.148C332.971 217.463 333.062 216.827 333.243 216.241C333.431 215.649 333.709 215.137 334.078 214.703C334.453 214.264 334.916 213.924 335.467 213.684C336.023 213.438 336.671 213.314 337.409 213.314C338.2 213.314 338.897 213.464 339.501 213.763C340.11 214.062 340.588 214.495 340.934 215.063C341.279 215.632 341.449 216.32 341.443 217.129H338.657C338.663 216.842 338.619 216.584 338.525 216.355C338.432 216.127 338.285 215.945 338.086 215.811C337.893 215.67 337.644 215.6 337.339 215.6C337.034 215.6 336.788 215.667 336.601 215.802C336.413 215.937 336.27 216.124 336.17 216.364C336.076 216.599 336.012 216.868 335.977 217.173C335.947 217.478 335.933 217.803 335.933 218.148V218.351C335.933 218.702 335.947 219.033 335.977 219.344C336.012 219.648 336.079 219.918 336.179 220.152C336.278 220.381 336.422 220.562 336.609 220.697C336.797 220.826 337.046 220.891 337.356 220.891ZM347.719 213.49V215.547H341.988V213.49H347.719ZM343.192 211.126H346.154V219.897C346.154 220.149 346.184 220.346 346.242 220.486C346.301 220.621 346.4 220.718 346.541 220.776C346.688 220.829 346.881 220.855 347.121 220.855C347.291 220.855 347.432 220.853 347.543 220.847C347.654 220.835 347.76 220.82 347.859 220.803V222.921C347.607 223.003 347.344 223.064 347.068 223.105C346.793 223.152 346.5 223.176 346.189 223.176C345.557 223.176 345.015 223.076 344.563 222.877C344.118 222.678 343.778 222.364 343.544 221.937C343.31 221.509 343.192 220.952 343.192 220.267V211.126ZM349.09 221.611C349.09 221.189 349.242 220.838 349.547 220.557C349.852 220.27 350.244 220.126 350.725 220.126C351.211 220.126 351.604 220.27 351.902 220.557C352.207 220.838 352.359 221.189 352.359 221.611C352.359 222.033 352.207 222.388 351.902 222.675C351.604 222.956 351.211 223.097 350.725 223.097C350.244 223.097 349.852 222.956 349.547 222.675C349.242 222.388 349.09 222.033 349.09 221.611ZM354.565 213.49H357.536V223.308C357.536 224.069 357.39 224.711 357.097 225.232C356.804 225.76 356.385 226.158 355.84 226.428C355.295 226.703 354.645 226.841 353.889 226.841C353.637 226.841 353.405 226.829 353.194 226.806C352.978 226.788 352.74 226.75 352.482 226.691V224.45C352.635 224.474 352.775 224.491 352.904 224.503C353.033 224.521 353.174 224.529 353.326 224.529C353.596 224.529 353.821 224.485 354.003 224.397C354.185 224.31 354.322 224.175 354.416 223.993C354.516 223.812 354.565 223.583 354.565 223.308V213.49ZM354.346 211.038C354.346 210.616 354.498 210.271 354.803 210.001C355.107 209.731 355.503 209.597 355.989 209.597C356.476 209.597 356.871 209.731 357.176 210.001C357.48 210.271 357.633 210.616 357.633 211.038C357.633 211.46 357.48 211.806 357.176 212.075C356.871 212.345 356.476 212.479 355.989 212.479C355.503 212.479 355.107 212.345 354.803 212.075C354.498 211.806 354.346 211.46 354.346 211.038ZM364.198 220.328C364.198 220.164 364.143 220.023 364.031 219.906C363.926 219.783 363.738 219.672 363.469 219.572C363.199 219.467 362.821 219.361 362.335 219.256C361.872 219.156 361.436 219.024 361.025 218.86C360.621 218.696 360.267 218.497 359.962 218.263C359.657 218.028 359.417 217.75 359.241 217.428C359.071 217.105 358.986 216.736 358.986 216.32C358.986 215.916 359.071 215.535 359.241 215.178C359.417 214.814 359.672 214.495 360.006 214.22C360.346 213.938 360.759 213.719 361.245 213.561C361.731 213.396 362.285 213.314 362.906 213.314C363.762 213.314 364.5 213.446 365.121 213.71C365.742 213.968 366.22 214.331 366.554 214.8C366.894 215.263 367.063 215.799 367.063 216.408H364.102C364.102 216.168 364.061 215.963 363.979 215.793C363.902 215.623 363.776 215.494 363.601 215.406C363.425 215.312 363.19 215.266 362.897 215.266C362.692 215.266 362.505 215.304 362.335 215.38C362.171 215.456 362.039 215.562 361.939 215.696C361.84 215.831 361.79 215.989 361.79 216.171C361.79 216.3 361.819 216.417 361.878 216.522C361.942 216.622 362.039 216.716 362.168 216.804C362.297 216.886 362.461 216.962 362.66 217.032C362.859 217.097 363.1 217.155 363.381 217.208C364.02 217.325 364.617 217.492 365.174 217.709C365.73 217.926 366.182 218.233 366.527 218.632C366.879 219.03 367.055 219.566 367.055 220.24C367.055 220.662 366.958 221.052 366.765 221.409C366.571 221.761 366.293 222.071 365.93 222.341C365.566 222.604 365.13 222.81 364.62 222.956C364.11 223.103 363.536 223.176 362.897 223.176C361.989 223.176 361.222 223.015 360.595 222.692C359.968 222.364 359.493 221.954 359.171 221.462C358.854 220.964 358.696 220.46 358.696 219.95H361.456C361.468 220.243 361.538 220.483 361.667 220.671C361.802 220.858 361.98 220.996 362.203 221.084C362.426 221.172 362.684 221.216 362.977 221.216C363.246 221.216 363.469 221.178 363.645 221.102C363.826 221.025 363.964 220.923 364.058 220.794C364.151 220.659 364.198 220.504 364.198 220.328Z" fill="white"/>
<rect x="279" y="196" width="111" height="41" rx="3" stroke="#424242" stroke-width="4"/>
<rect x="410" y="196" width="112" height="41" rx="3" fill="#424242"/>
<path d="M442.19 220.627V223H435.37V220.627H442.19ZM436.469 210.203V223H433.384V210.203H436.469ZM441.312 215.283V217.577H435.37V215.283H441.312ZM442.217 210.203V212.585H435.37V210.203H442.217ZM446.444 209.5V223H443.474V209.5H446.444ZM452.878 223.176C452.104 223.176 451.413 223.056 450.804 222.815C450.194 222.569 449.679 222.232 449.257 221.805C448.841 221.377 448.521 220.885 448.299 220.328C448.082 219.771 447.974 219.183 447.974 218.562V218.228C447.974 217.53 448.07 216.886 448.264 216.294C448.457 215.696 448.744 215.175 449.125 214.729C449.506 214.284 449.983 213.938 450.558 213.692C451.132 213.44 451.8 213.314 452.562 213.314C453.235 213.314 453.839 213.423 454.372 213.64C454.905 213.856 455.356 214.167 455.726 214.571C456.101 214.976 456.385 215.465 456.578 216.039C456.777 216.613 456.877 217.258 456.877 217.973V219.177H449.107V217.322H453.985V217.094C453.991 216.777 453.936 216.508 453.818 216.285C453.707 216.062 453.543 215.893 453.326 215.775C453.109 215.658 452.846 215.6 452.535 215.6C452.213 215.6 451.946 215.67 451.735 215.811C451.53 215.951 451.369 216.145 451.252 216.391C451.141 216.631 451.062 216.909 451.015 217.226C450.968 217.542 450.944 217.876 450.944 218.228V218.562C450.944 218.913 450.991 219.232 451.085 219.52C451.185 219.807 451.325 220.053 451.507 220.258C451.694 220.457 451.917 220.612 452.175 220.724C452.438 220.835 452.737 220.891 453.071 220.891C453.476 220.891 453.874 220.814 454.267 220.662C454.659 220.51 454.996 220.258 455.277 219.906L456.622 221.506C456.429 221.781 456.153 222.048 455.796 222.306C455.444 222.563 455.022 222.774 454.53 222.938C454.038 223.097 453.487 223.176 452.878 223.176ZM462.098 220.891C462.373 220.891 462.607 220.841 462.801 220.741C463 220.636 463.149 220.489 463.249 220.302C463.354 220.108 463.404 219.877 463.398 219.607H466.185C466.19 220.322 466.015 220.949 465.657 221.488C465.306 222.021 464.825 222.438 464.216 222.736C463.612 223.029 462.93 223.176 462.168 223.176C461.424 223.176 460.773 223.056 460.217 222.815C459.66 222.569 459.194 222.229 458.819 221.796C458.45 221.356 458.172 220.844 457.984 220.258C457.803 219.672 457.712 219.036 457.712 218.351V218.148C457.712 217.463 457.803 216.827 457.984 216.241C458.172 215.649 458.45 215.137 458.819 214.703C459.194 214.264 459.657 213.924 460.208 213.684C460.765 213.438 461.412 213.314 462.15 213.314C462.941 213.314 463.639 213.464 464.242 213.763C464.852 214.062 465.329 214.495 465.675 215.063C466.021 215.632 466.19 216.32 466.185 217.129H463.398C463.404 216.842 463.36 216.584 463.267 216.355C463.173 216.127 463.026 215.945 462.827 215.811C462.634 215.67 462.385 215.6 462.08 215.6C461.775 215.6 461.529 215.667 461.342 215.802C461.154 215.937 461.011 216.124 460.911 216.364C460.817 216.599 460.753 216.868 460.718 217.173C460.688 217.478 460.674 217.803 460.674 218.148V218.351C460.674 218.702 460.688 219.033 460.718 219.344C460.753 219.648 460.82 219.918 460.92 220.152C461.02 220.381 461.163 220.562 461.351 220.697C461.538 220.826 461.787 220.891 462.098 220.891ZM472.46 213.49V215.547H466.729V213.49H472.46ZM467.934 211.126H470.896V219.897C470.896 220.149 470.925 220.346 470.983 220.486C471.042 220.621 471.142 220.718 471.282 220.776C471.429 220.829 471.622 220.855 471.862 220.855C472.032 220.855 472.173 220.853 472.284 220.847C472.396 220.835 472.501 220.82 472.601 220.803V222.921C472.349 223.003 472.085 223.064 471.81 223.105C471.534 223.152 471.241 223.176 470.931 223.176C470.298 223.176 469.756 223.076 469.305 222.877C468.859 222.678 468.52 222.364 468.285 221.937C468.051 221.509 467.934 220.952 467.934 220.267V211.126ZM476.626 215.846V223H473.664V213.49H476.433L476.626 215.846ZM479.438 213.42L479.386 216.171C479.269 216.159 479.11 216.145 478.911 216.127C478.712 216.109 478.545 216.101 478.41 216.101C478.064 216.101 477.766 216.142 477.514 216.224C477.268 216.3 477.062 216.417 476.898 216.575C476.74 216.728 476.623 216.921 476.547 217.155C476.477 217.39 476.444 217.662 476.45 217.973L475.914 217.621C475.914 216.982 475.976 216.402 476.099 215.881C476.228 215.354 476.409 214.899 476.644 214.519C476.878 214.132 477.162 213.836 477.496 213.631C477.83 213.42 478.205 213.314 478.621 213.314C478.768 213.314 478.911 213.323 479.052 213.341C479.198 213.358 479.327 213.385 479.438 213.42ZM479.772 218.342V218.157C479.772 217.46 479.872 216.818 480.071 216.232C480.271 215.641 480.563 215.128 480.95 214.694C481.337 214.261 481.814 213.924 482.383 213.684C482.951 213.438 483.607 213.314 484.352 213.314C485.102 213.314 485.761 213.438 486.329 213.684C486.903 213.924 487.384 214.261 487.771 214.694C488.157 215.128 488.45 215.641 488.649 216.232C488.849 216.818 488.948 217.46 488.948 218.157V218.342C488.948 219.033 488.849 219.675 488.649 220.267C488.45 220.853 488.157 221.365 487.771 221.805C487.384 222.238 486.906 222.575 486.338 222.815C485.77 223.056 485.113 223.176 484.369 223.176C483.625 223.176 482.966 223.056 482.392 222.815C481.817 222.575 481.337 222.238 480.95 221.805C480.563 221.365 480.271 220.853 480.071 220.267C479.872 219.675 479.772 219.033 479.772 218.342ZM482.734 218.157V218.342C482.734 218.699 482.761 219.033 482.813 219.344C482.866 219.654 482.954 219.927 483.077 220.161C483.2 220.39 483.367 220.568 483.578 220.697C483.789 220.826 484.053 220.891 484.369 220.891C484.68 220.891 484.938 220.826 485.143 220.697C485.354 220.568 485.521 220.39 485.644 220.161C485.767 219.927 485.854 219.654 485.907 219.344C485.96 219.033 485.986 218.699 485.986 218.342V218.157C485.986 217.812 485.96 217.486 485.907 217.182C485.854 216.871 485.767 216.599 485.644 216.364C485.521 216.124 485.354 215.937 485.143 215.802C484.932 215.667 484.668 215.6 484.352 215.6C484.041 215.6 483.78 215.667 483.569 215.802C483.364 215.937 483.2 216.124 483.077 216.364C482.954 216.599 482.866 216.871 482.813 217.182C482.761 217.486 482.734 217.812 482.734 218.157ZM493.176 215.521V223H490.214V213.49H492.991L493.176 215.521ZM492.824 217.92L492.13 217.938C492.13 217.211 492.218 216.563 492.394 215.995C492.569 215.421 492.818 214.935 493.141 214.536C493.463 214.138 493.847 213.836 494.292 213.631C494.743 213.42 495.244 213.314 495.795 213.314C496.234 213.314 496.636 213.379 496.999 213.508C497.368 213.637 497.685 213.845 497.948 214.132C498.218 214.419 498.423 214.8 498.563 215.274C498.71 215.743 498.783 216.323 498.783 217.015V223H495.804V217.006C495.804 216.625 495.751 216.335 495.646 216.136C495.54 215.931 495.388 215.79 495.188 215.714C494.989 215.638 494.746 215.6 494.459 215.6C494.154 215.6 493.896 215.658 493.686 215.775C493.475 215.893 493.305 216.057 493.176 216.268C493.053 216.473 492.962 216.716 492.903 216.997C492.851 217.278 492.824 217.586 492.824 217.92Z" fill="white"/>
<rect x="410" y="196" width="112" height="41" rx="3" stroke="#424242" stroke-width="4"/>
<rect x="542" y="196" width="104" height="41" rx="3" fill="#424242"/>
<path d="M573.812 220.627V223H567.343V220.627H573.812ZM568.441 210.203V223H565.356V210.203H568.441ZM579.911 220.609V216.689C579.911 216.42 579.873 216.188 579.797 215.995C579.721 215.802 579.601 215.652 579.437 215.547C579.272 215.436 579.053 215.38 578.777 215.38C578.555 215.38 578.364 215.418 578.206 215.494C578.048 215.57 577.928 215.685 577.846 215.837C577.764 215.989 577.723 216.183 577.723 216.417H574.761C574.761 215.978 574.857 215.57 575.051 215.195C575.25 214.814 575.531 214.483 575.895 214.202C576.264 213.921 576.703 213.704 577.213 213.552C577.729 213.394 578.303 213.314 578.936 213.314C579.691 213.314 580.365 213.44 580.957 213.692C581.555 213.944 582.026 214.322 582.372 214.826C582.718 215.324 582.891 215.951 582.891 216.707V220.601C582.891 221.222 582.926 221.693 582.996 222.016C583.066 222.332 583.166 222.61 583.295 222.851V223H580.324C580.184 222.707 580.078 222.35 580.008 221.928C579.943 221.5 579.911 221.061 579.911 220.609ZM580.271 217.19L580.289 218.772H578.979C578.704 218.772 578.47 218.811 578.276 218.887C578.089 218.963 577.937 219.068 577.819 219.203C577.708 219.332 577.626 219.479 577.573 219.643C577.526 219.807 577.503 219.979 577.503 220.161C577.503 220.337 577.544 220.495 577.626 220.636C577.714 220.771 577.831 220.876 577.978 220.952C578.124 221.028 578.288 221.066 578.47 221.066C578.798 221.066 579.076 221.005 579.305 220.882C579.539 220.753 579.718 220.598 579.841 220.416C579.964 220.234 580.025 220.064 580.025 219.906L580.676 221.119C580.559 221.354 580.424 221.591 580.271 221.831C580.125 222.071 579.94 222.294 579.718 222.499C579.501 222.698 579.234 222.862 578.918 222.991C578.602 223.114 578.218 223.176 577.767 223.176C577.181 223.176 576.642 223.056 576.149 222.815C575.663 222.575 575.273 222.241 574.98 221.813C574.688 221.38 574.541 220.882 574.541 220.319C574.541 219.827 574.629 219.388 574.805 219.001C574.986 218.614 575.259 218.286 575.622 218.017C575.985 217.747 576.448 217.542 577.011 217.401C577.573 217.261 578.235 217.19 578.997 217.19H580.271ZM587.522 215.846V223H584.561V213.49H587.329L587.522 215.846ZM590.335 213.42L590.282 216.171C590.165 216.159 590.007 216.145 589.808 216.127C589.608 216.109 589.441 216.101 589.307 216.101C588.961 216.101 588.662 216.142 588.41 216.224C588.164 216.3 587.959 216.417 587.795 216.575C587.637 216.728 587.52 216.921 587.443 217.155C587.373 217.39 587.341 217.662 587.347 217.973L586.811 217.621C586.811 216.982 586.872 216.402 586.995 215.881C587.124 215.354 587.306 214.899 587.54 214.519C587.774 214.132 588.059 213.836 588.393 213.631C588.727 213.42 589.102 213.314 589.518 213.314C589.664 213.314 589.808 213.323 589.948 213.341C590.095 213.358 590.224 213.385 590.335 213.42ZM596.03 220.609V216.689C596.03 216.42 595.992 216.188 595.916 215.995C595.84 215.802 595.72 215.652 595.556 215.547C595.392 215.436 595.172 215.38 594.896 215.38C594.674 215.38 594.483 215.418 594.325 215.494C594.167 215.57 594.047 215.685 593.965 215.837C593.883 215.989 593.842 216.183 593.842 216.417H590.88C590.88 215.978 590.977 215.57 591.17 215.195C591.369 214.814 591.65 214.483 592.014 214.202C592.383 213.921 592.822 213.704 593.332 213.552C593.848 213.394 594.422 213.314 595.055 213.314C595.811 213.314 596.484 213.44 597.076 213.692C597.674 213.944 598.146 214.322 598.491 214.826C598.837 215.324 599.01 215.951 599.01 216.707V220.601C599.01 221.222 599.045 221.693 599.115 222.016C599.186 222.332 599.285 222.61 599.414 222.851V223H596.443C596.303 222.707 596.197 222.35 596.127 221.928C596.062 221.5 596.03 221.061 596.03 220.609ZM596.391 217.19L596.408 218.772H595.099C594.823 218.772 594.589 218.811 594.396 218.887C594.208 218.963 594.056 219.068 593.938 219.203C593.827 219.332 593.745 219.479 593.692 219.643C593.646 219.807 593.622 219.979 593.622 220.161C593.622 220.337 593.663 220.495 593.745 220.636C593.833 220.771 593.95 220.876 594.097 220.952C594.243 221.028 594.407 221.066 594.589 221.066C594.917 221.066 595.195 221.005 595.424 220.882C595.658 220.753 595.837 220.598 595.96 220.416C596.083 220.234 596.145 220.064 596.145 219.906L596.795 221.119C596.678 221.354 596.543 221.591 596.391 221.831C596.244 222.071 596.06 222.294 595.837 222.499C595.62 222.698 595.354 222.862 595.037 222.991C594.721 223.114 594.337 223.176 593.886 223.176C593.3 223.176 592.761 223.056 592.269 222.815C591.782 222.575 591.393 222.241 591.1 221.813C590.807 221.38 590.66 220.882 590.66 220.319C590.66 219.827 590.748 219.388 590.924 219.001C591.105 218.614 591.378 218.286 591.741 218.017C592.104 217.747 592.567 217.542 593.13 217.401C593.692 217.261 594.354 217.19 595.116 217.19H596.391ZM603.94 220.97L605.812 213.49H608.933L605.821 223H603.976L603.94 220.97ZM602.833 213.49L604.679 220.97L604.661 223H602.807L599.704 213.49H602.833ZM614.294 223.176C613.521 223.176 612.829 223.056 612.22 222.815C611.61 222.569 611.095 222.232 610.673 221.805C610.257 221.377 609.938 220.885 609.715 220.328C609.498 219.771 609.39 219.183 609.39 218.562V218.228C609.39 217.53 609.486 216.886 609.68 216.294C609.873 215.696 610.16 215.175 610.541 214.729C610.922 214.284 611.399 213.938 611.974 213.692C612.548 213.44 613.216 213.314 613.978 213.314C614.651 213.314 615.255 213.423 615.788 213.64C616.321 213.856 616.772 214.167 617.142 214.571C617.517 214.976 617.801 215.465 617.994 216.039C618.193 216.613 618.293 217.258 618.293 217.973V219.177H610.523V217.322H615.401V217.094C615.407 216.777 615.352 216.508 615.234 216.285C615.123 216.062 614.959 215.893 614.742 215.775C614.525 215.658 614.262 215.6 613.951 215.6C613.629 215.6 613.362 215.67 613.151 215.811C612.946 215.951 612.785 216.145 612.668 216.391C612.557 216.631 612.478 216.909 612.431 217.226C612.384 217.542 612.36 217.876 612.36 218.228V218.562C612.36 218.913 612.407 219.232 612.501 219.52C612.601 219.807 612.741 220.053 612.923 220.258C613.11 220.457 613.333 220.612 613.591 220.724C613.854 220.835 614.153 220.891 614.487 220.891C614.892 220.891 615.29 220.814 615.683 220.662C616.075 220.51 616.412 220.258 616.693 219.906L618.038 221.506C617.845 221.781 617.569 222.048 617.212 222.306C616.86 222.563 616.438 222.774 615.946 222.938C615.454 223.097 614.903 223.176 614.294 223.176ZM622.626 209.5V223H619.655V209.5H622.626Z" fill="white"/>
<rect x="542" y="196" width="104" height="41" rx="3" stroke="#424242" stroke-width="4"/>
<rect x="666" y="196" width="103" height="41" rx="3" fill="#424242"/>
<path d="M690.72 210.203H693.233L696.09 219.106L698.946 210.203H701.46L697.109 223H695.07L690.72 210.203ZM689.19 210.203H691.792L692.275 220.012V223H689.19V210.203ZM700.388 210.203H702.998V223H699.904V220.012L700.388 210.203ZM707.753 221.884L710.214 213.49H713.396L709.572 224.415C709.49 224.655 709.382 224.913 709.247 225.188C709.112 225.47 708.928 225.736 708.693 225.988C708.459 226.24 708.157 226.445 707.788 226.604C707.425 226.762 706.974 226.841 706.435 226.841C706.147 226.841 705.937 226.826 705.802 226.797C705.673 226.773 705.474 226.729 705.204 226.665V224.547C705.28 224.547 705.345 224.547 705.397 224.547C705.456 224.547 705.521 224.547 705.591 224.547C705.907 224.547 706.159 224.515 706.347 224.45C706.54 224.386 706.687 224.292 706.786 224.169C706.892 224.046 706.974 223.896 707.032 223.721L707.753 221.884ZM707.129 213.49L709.001 220.144L709.326 223.281H707.34L703.956 213.49H707.129ZM720.901 219.599C720.901 219.399 720.872 219.221 720.813 219.062C720.755 218.898 720.646 218.746 720.488 218.605C720.33 218.465 720.102 218.324 719.803 218.184C719.51 218.037 719.123 217.885 718.643 217.727C718.08 217.539 717.538 217.328 717.017 217.094C716.495 216.854 716.029 216.575 715.619 216.259C715.209 215.937 714.884 215.562 714.644 215.134C714.403 214.7 714.283 214.196 714.283 213.622C714.283 213.071 714.406 212.576 714.652 212.137C714.898 211.691 715.241 211.313 715.681 211.003C716.126 210.687 716.647 210.446 717.245 210.282C717.843 210.112 718.496 210.027 719.205 210.027C720.143 210.027 720.969 210.191 721.684 210.52C722.404 210.842 722.967 211.302 723.371 211.899C723.781 212.491 723.986 213.191 723.986 214H720.919C720.919 213.678 720.852 213.394 720.717 213.147C720.588 212.901 720.392 212.708 720.128 212.567C719.864 212.427 719.533 212.356 719.135 212.356C718.748 212.356 718.423 212.415 718.159 212.532C717.896 212.649 717.696 212.808 717.562 213.007C717.427 213.2 717.359 213.414 717.359 213.648C717.359 213.842 717.412 214.018 717.518 214.176C717.629 214.328 717.784 214.472 717.983 214.606C718.188 214.741 718.435 214.87 718.722 214.993C719.015 215.116 719.343 215.236 719.706 215.354C720.386 215.57 720.989 215.813 721.517 216.083C722.05 216.347 722.498 216.648 722.861 216.988C723.23 217.322 723.509 217.703 723.696 218.131C723.89 218.559 723.986 219.042 723.986 219.581C723.986 220.155 723.875 220.665 723.652 221.11C723.43 221.556 723.11 221.934 722.694 222.244C722.278 222.549 721.78 222.78 721.2 222.938C720.62 223.097 719.973 223.176 719.258 223.176C718.602 223.176 717.954 223.094 717.315 222.93C716.683 222.76 716.108 222.502 715.593 222.156C715.077 221.805 714.664 221.356 714.354 220.812C714.049 220.261 713.896 219.607 713.896 218.852H716.99C716.99 219.227 717.04 219.543 717.14 219.801C717.239 220.059 717.386 220.267 717.579 220.425C717.772 220.577 718.01 220.688 718.291 220.759C718.572 220.823 718.895 220.855 719.258 220.855C719.65 220.855 719.967 220.8 720.207 220.688C720.447 220.571 720.623 220.419 720.734 220.231C720.846 220.038 720.901 219.827 720.901 219.599ZM732.714 220.891L736.282 223.721L734.366 225.338L730.859 222.508L732.714 220.891ZM736.432 216.347V216.865C736.432 217.844 736.294 218.723 736.019 219.502C735.749 220.275 735.362 220.938 734.858 221.488C734.36 222.033 733.771 222.452 733.092 222.745C732.412 223.032 731.662 223.176 730.842 223.176C730.016 223.176 729.26 223.032 728.574 222.745C727.895 222.452 727.303 222.033 726.799 221.488C726.301 220.938 725.914 220.275 725.639 219.502C725.369 218.723 725.234 217.844 725.234 216.865V216.347C725.234 215.368 725.369 214.489 725.639 213.71C725.914 212.931 726.298 212.269 726.79 211.724C727.288 211.173 727.877 210.754 728.557 210.467C729.242 210.174 729.998 210.027 730.824 210.027C731.645 210.027 732.395 210.174 733.074 210.467C733.76 210.754 734.352 211.173 734.85 211.724C735.354 212.269 735.743 212.931 736.019 213.71C736.294 214.489 736.432 215.368 736.432 216.347ZM733.294 216.865V216.329C733.294 215.696 733.238 215.14 733.127 214.659C733.021 214.173 732.863 213.766 732.652 213.438C732.441 213.109 732.181 212.863 731.87 212.699C731.565 212.529 731.217 212.444 730.824 212.444C730.414 212.444 730.057 212.529 729.752 212.699C729.447 212.863 729.192 213.109 728.987 213.438C728.782 213.766 728.627 214.173 728.521 214.659C728.422 215.14 728.372 215.696 728.372 216.329V216.865C728.372 217.492 728.422 218.049 728.521 218.535C728.627 219.016 728.782 219.423 728.987 219.757C729.198 220.091 729.456 220.343 729.761 220.513C730.071 220.683 730.432 220.768 730.842 220.768C731.234 220.768 731.583 220.683 731.888 220.513C732.192 220.343 732.447 220.091 732.652 219.757C732.863 219.423 733.021 219.016 733.127 218.535C733.238 218.049 733.294 217.492 733.294 216.865ZM746.46 220.627V223H739.991V220.627H746.46ZM741.09 210.203V223H738.005V210.203H741.09Z" fill="white"/>
<rect x="666" y="196" width="103" height="41" rx="3" stroke="#424242" stroke-width="4"/>
</svg>
