<svg width="1363" height="163" viewBox="0 0 1363 163" fill="none" xmlns="http://www.w3.org/2000/svg">
<path d="M0 15C0 6.71573 6.71573 0 15 0H37V163H15C6.71573 163 0 156.284 0 148V15Z" fill="#424242"/>
<rect width="1097" height="163" transform="translate(37)" fill="#F0F0F0"/>
<path d="M101.906 53.9219L94.3945 51.2383V48.0859L104.602 52.375V54.6367L101.906 53.9219ZM94.3945 56.1719L101.918 53.4297L104.602 52.7852V55.0352L94.3945 59.3242V56.1719ZM119.836 46.8555L115.195 61H111.457L117.797 43.9375H120.176L119.836 46.8555ZM123.691 61L119.039 46.8555L118.664 43.9375H121.066L127.441 61H123.691ZM123.48 54.6484V57.4023H114.469V54.6484H123.48ZM132.762 43.9375V61H129.258V43.9375H132.762ZM142.699 57.4961C142.699 57.2539 142.629 57.0352 142.488 56.8398C142.348 56.6445 142.086 56.4648 141.703 56.3008C141.328 56.1289 140.785 55.9727 140.074 55.832C139.434 55.6914 138.836 55.5156 138.281 55.3047C137.734 55.0859 137.258 54.8242 136.852 54.5195C136.453 54.2148 136.141 53.8555 135.914 53.4414C135.688 53.0195 135.574 52.5391 135.574 52C135.574 51.4688 135.688 50.9688 135.914 50.5C136.148 50.0312 136.48 49.6172 136.91 49.2578C137.348 48.8906 137.879 48.6055 138.504 48.4023C139.137 48.1914 139.848 48.0859 140.637 48.0859C141.738 48.0859 142.684 48.2617 143.473 48.6133C144.27 48.9648 144.879 49.4492 145.301 50.0664C145.73 50.6758 145.945 51.3711 145.945 52.1523H142.57C142.57 51.8242 142.5 51.5312 142.359 51.2734C142.227 51.0078 142.016 50.8008 141.727 50.6523C141.445 50.4961 141.078 50.418 140.625 50.418C140.25 50.418 139.926 50.4844 139.652 50.6172C139.379 50.7422 139.168 50.9141 139.02 51.1328C138.879 51.3438 138.809 51.5781 138.809 51.8359C138.809 52.0312 138.848 52.207 138.926 52.3633C139.012 52.5117 139.148 52.6484 139.336 52.7734C139.523 52.8984 139.766 53.0156 140.062 53.125C140.367 53.2266 140.742 53.3203 141.188 53.4062C142.102 53.5938 142.918 53.8398 143.637 54.1445C144.355 54.4414 144.926 54.8477 145.348 55.3633C145.77 55.8711 145.98 56.5391 145.98 57.3672C145.98 57.9297 145.855 58.4453 145.605 58.9141C145.355 59.3828 144.996 59.793 144.527 60.1445C144.059 60.4883 143.496 60.7578 142.84 60.9531C142.191 61.1406 141.461 61.2344 140.648 61.2344C139.469 61.2344 138.469 61.0234 137.648 60.6016C136.836 60.1797 136.219 59.6445 135.797 58.9961C135.383 58.3398 135.176 57.668 135.176 56.9805H138.375C138.391 57.4414 138.508 57.8125 138.727 58.0938C138.953 58.375 139.238 58.5781 139.582 58.7031C139.934 58.8281 140.312 58.8906 140.719 58.8906C141.156 58.8906 141.52 58.832 141.809 58.7148C142.098 58.5898 142.316 58.4258 142.465 58.2227C142.621 58.0117 142.699 57.7695 142.699 57.4961ZM155.027 57.4961C155.027 57.2539 154.957 57.0352 154.816 56.8398C154.676 56.6445 154.414 56.4648 154.031 56.3008C153.656 56.1289 153.113 55.9727 152.402 55.832C151.762 55.6914 151.164 55.5156 150.609 55.3047C150.062 55.0859 149.586 54.8242 149.18 54.5195C148.781 54.2148 148.469 53.8555 148.242 53.4414C148.016 53.0195 147.902 52.5391 147.902 52C147.902 51.4688 148.016 50.9688 148.242 50.5C148.477 50.0312 148.809 49.6172 149.238 49.2578C149.676 48.8906 150.207 48.6055 150.832 48.4023C151.465 48.1914 152.176 48.0859 152.965 48.0859C154.066 48.0859 155.012 48.2617 155.801 48.6133C156.598 48.9648 157.207 49.4492 157.629 50.0664C158.059 50.6758 158.273 51.3711 158.273 52.1523H154.898C154.898 51.8242 154.828 51.5312 154.688 51.2734C154.555 51.0078 154.344 50.8008 154.055 50.6523C153.773 50.4961 153.406 50.418 152.953 50.418C152.578 50.418 152.254 50.4844 151.98 50.6172C151.707 50.7422 151.496 50.9141 151.348 51.1328C151.207 51.3438 151.137 51.5781 151.137 51.8359C151.137 52.0312 151.176 52.207 151.254 52.3633C151.34 52.5117 151.477 52.6484 151.664 52.7734C151.852 52.8984 152.094 53.0156 152.391 53.125C152.695 53.2266 153.07 53.3203 153.516 53.4062C154.43 53.5938 155.246 53.8398 155.965 54.1445C156.684 54.4414 157.254 54.8477 157.676 55.3633C158.098 55.8711 158.309 56.5391 158.309 57.3672C158.309 57.9297 158.184 58.4453 157.934 58.9141C157.684 59.3828 157.324 59.793 156.855 60.1445C156.387 60.4883 155.824 60.7578 155.168 60.9531C154.52 61.1406 153.789 61.2344 152.977 61.2344C151.797 61.2344 150.797 61.0234 149.977 60.6016C149.164 60.1797 148.547 59.6445 148.125 58.9961C147.711 58.3398 147.504 57.668 147.504 56.9805H150.703C150.719 57.4414 150.836 57.8125 151.055 58.0938C151.281 58.375 151.566 58.5781 151.91 58.7031C152.262 58.8281 152.641 58.8906 153.047 58.8906C153.484 58.8906 153.848 58.832 154.137 58.7148C154.426 58.5898 154.645 58.4258 154.793 58.2227C154.949 58.0117 155.027 57.7695 155.027 57.4961ZM164.062 48.3203V61H160.676V48.3203H164.062ZM160.465 45.0156C160.465 44.5234 160.637 44.1172 160.98 43.7969C161.324 43.4766 161.785 43.3164 162.363 43.3164C162.934 43.3164 163.391 43.4766 163.734 43.7969C164.086 44.1172 164.262 44.5234 164.262 45.0156C164.262 45.5078 164.086 45.9141 163.734 46.2344C163.391 46.5547 162.934 46.7148 162.363 46.7148C161.785 46.7148 161.324 46.5547 160.98 46.2344C160.637 45.9141 160.465 45.5078 160.465 45.0156ZM173.707 57.4961C173.707 57.2539 173.637 57.0352 173.496 56.8398C173.355 56.6445 173.094 56.4648 172.711 56.3008C172.336 56.1289 171.793 55.9727 171.082 55.832C170.441 55.6914 169.844 55.5156 169.289 55.3047C168.742 55.0859 168.266 54.8242 167.859 54.5195C167.461 54.2148 167.148 53.8555 166.922 53.4414C166.695 53.0195 166.582 52.5391 166.582 52C166.582 51.4688 166.695 50.9688 166.922 50.5C167.156 50.0312 167.488 49.6172 167.918 49.2578C168.355 48.8906 168.887 48.6055 169.512 48.4023C170.145 48.1914 170.855 48.0859 171.645 48.0859C172.746 48.0859 173.691 48.2617 174.48 48.6133C175.277 48.9648 175.887 49.4492 176.309 50.0664C176.738 50.6758 176.953 51.3711 176.953 52.1523H173.578C173.578 51.8242 173.508 51.5312 173.367 51.2734C173.234 51.0078 173.023 50.8008 172.734 50.6523C172.453 50.4961 172.086 50.418 171.633 50.418C171.258 50.418 170.934 50.4844 170.66 50.6172C170.387 50.7422 170.176 50.9141 170.027 51.1328C169.887 51.3438 169.816 51.5781 169.816 51.8359C169.816 52.0312 169.855 52.207 169.934 52.3633C170.02 52.5117 170.156 52.6484 170.344 52.7734C170.531 52.8984 170.773 53.0156 171.07 53.125C171.375 53.2266 171.75 53.3203 172.195 53.4062C173.109 53.5938 173.926 53.8398 174.645 54.1445C175.363 54.4414 175.934 54.8477 176.355 55.3633C176.777 55.8711 176.988 56.5391 176.988 57.3672C176.988 57.9297 176.863 58.4453 176.613 58.9141C176.363 59.3828 176.004 59.793 175.535 60.1445C175.066 60.4883 174.504 60.7578 173.848 60.9531C173.199 61.1406 172.469 61.2344 171.656 61.2344C170.477 61.2344 169.477 61.0234 168.656 60.6016C167.844 60.1797 167.227 59.6445 166.805 58.9961C166.391 58.3398 166.184 57.668 166.184 56.9805H169.383C169.398 57.4414 169.516 57.8125 169.734 58.0938C169.961 58.375 170.246 58.5781 170.59 58.7031C170.941 58.8281 171.32 58.8906 171.727 58.8906C172.164 58.8906 172.527 58.832 172.816 58.7148C173.105 58.5898 173.324 58.4258 173.473 58.2227C173.629 58.0117 173.707 57.7695 173.707 57.4961ZM185.391 48.3203V50.7109H178.008V48.3203H185.391ZM179.836 45.1914H183.211V57.1797C183.211 57.5469 183.258 57.8281 183.352 58.0234C183.453 58.2188 183.602 58.3555 183.797 58.4336C183.992 58.5039 184.238 58.5391 184.535 58.5391C184.746 58.5391 184.934 58.5312 185.098 58.5156C185.27 58.4922 185.414 58.4688 185.531 58.4453L185.543 60.9297C185.254 61.0234 184.941 61.0977 184.605 61.1523C184.27 61.207 183.898 61.2344 183.492 61.2344C182.75 61.2344 182.102 61.1133 181.547 60.8711C181 60.6211 180.578 60.2227 180.281 59.6758C179.984 59.1289 179.836 58.4102 179.836 57.5195V45.1914Z" fill="#888888"/>
<path d="M109.219 107.422H100.734V101.07H109.219C110.375 101.07 111.312 100.875 112.031 100.484C112.75 100.094 113.273 99.5547 113.602 98.8672C113.945 98.1641 114.117 97.375 114.117 96.5C114.117 95.5625 113.945 94.6953 113.602 93.8984C113.273 93.1016 112.75 92.4609 112.031 91.9766C111.312 91.4766 110.375 91.2266 109.219 91.2266H103.828V119H95.6016V84.875H109.219C111.953 84.875 114.305 85.375 116.273 86.375C118.258 87.375 119.781 88.75 120.844 90.5C121.906 92.2344 122.438 94.2188 122.438 96.4531C122.438 98.6562 121.906 100.578 120.844 102.219C119.781 103.859 118.258 105.141 116.273 106.062C114.305 106.969 111.953 107.422 109.219 107.422ZM134.461 99.9219V119H126.562V93.6406H133.945L134.461 99.9219ZM141.961 93.4531L141.82 100.789C141.508 100.758 141.086 100.719 140.555 100.672C140.023 100.625 139.578 100.602 139.219 100.602C138.297 100.602 137.5 100.711 136.828 100.93C136.172 101.133 135.625 101.445 135.188 101.867C134.766 102.273 134.453 102.789 134.25 103.414C134.062 104.039 133.977 104.766 133.992 105.594L132.562 104.656C132.562 102.953 132.727 101.406 133.055 100.016C133.398 98.6094 133.883 97.3984 134.508 96.3828C135.133 95.3516 135.891 94.5625 136.781 94.0156C137.672 93.4531 138.672 93.1719 139.781 93.1719C140.172 93.1719 140.555 93.1953 140.93 93.2422C141.32 93.2891 141.664 93.3594 141.961 93.4531ZM142.852 106.578V106.086C142.852 104.227 143.117 102.516 143.648 100.953C144.18 99.375 144.961 98.0078 145.992 96.8516C147.023 95.6953 148.297 94.7969 149.812 94.1562C151.328 93.5 153.078 93.1719 155.062 93.1719C157.062 93.1719 158.82 93.5 160.336 94.1562C161.867 94.7969 163.148 95.6953 164.18 96.8516C165.211 98.0078 165.992 99.375 166.523 100.953C167.055 102.516 167.32 104.227 167.32 106.086V106.578C167.32 108.422 167.055 110.133 166.523 111.711C165.992 113.273 165.211 114.641 164.18 115.812C163.148 116.969 161.875 117.867 160.359 118.508C158.844 119.148 157.094 119.469 155.109 119.469C153.125 119.469 151.367 119.148 149.836 118.508C148.305 117.867 147.023 116.969 145.992 115.812C144.961 114.641 144.18 113.273 143.648 111.711C143.117 110.133 142.852 108.422 142.852 106.578ZM150.75 106.086V106.578C150.75 107.531 150.82 108.422 150.961 109.25C151.102 110.078 151.336 110.805 151.664 111.43C151.992 112.039 152.438 112.516 153 112.859C153.562 113.203 154.266 113.375 155.109 113.375C155.938 113.375 156.625 113.203 157.172 112.859C157.734 112.516 158.18 112.039 158.508 111.43C158.836 110.805 159.07 110.078 159.211 109.25C159.352 108.422 159.422 107.531 159.422 106.578V106.086C159.422 105.164 159.352 104.297 159.211 103.484C159.07 102.656 158.836 101.93 158.508 101.305C158.18 100.664 157.734 100.164 157.172 99.8047C156.609 99.4453 155.906 99.2656 155.062 99.2656C154.234 99.2656 153.539 99.4453 152.977 99.8047C152.43 100.164 151.992 100.664 151.664 101.305C151.336 101.93 151.102 102.656 150.961 103.484C150.82 104.297 150.75 105.164 150.75 106.086ZM184.195 93.6406V99.125H168.914V93.6406H184.195ZM172.125 87.3359H180.023V110.727C180.023 111.398 180.102 111.922 180.258 112.297C180.414 112.656 180.68 112.914 181.055 113.07C181.445 113.211 181.961 113.281 182.602 113.281C183.055 113.281 183.43 113.273 183.727 113.258C184.023 113.227 184.305 113.188 184.57 113.141V118.789C183.898 119.008 183.195 119.172 182.461 119.281C181.727 119.406 180.945 119.469 180.117 119.469C178.43 119.469 176.984 119.203 175.781 118.672C174.594 118.141 173.688 117.305 173.062 116.164C172.438 115.023 172.125 113.539 172.125 111.711V87.3359ZM185.648 106.578V106.086C185.648 104.227 185.914 102.516 186.445 100.953C186.977 99.375 187.758 98.0078 188.789 96.8516C189.82 95.6953 191.094 94.7969 192.609 94.1562C194.125 93.5 195.875 93.1719 197.859 93.1719C199.859 93.1719 201.617 93.5 203.133 94.1562C204.664 94.7969 205.945 95.6953 206.977 96.8516C208.008 98.0078 208.789 99.375 209.32 100.953C209.852 102.516 210.117 104.227 210.117 106.086V106.578C210.117 108.422 209.852 110.133 209.32 111.711C208.789 113.273 208.008 114.641 206.977 115.812C205.945 116.969 204.672 117.867 203.156 118.508C201.641 119.148 199.891 119.469 197.906 119.469C195.922 119.469 194.164 119.148 192.633 118.508C191.102 117.867 189.82 116.969 188.789 115.812C187.758 114.641 186.977 113.273 186.445 111.711C185.914 110.133 185.648 108.422 185.648 106.578ZM193.547 106.086V106.578C193.547 107.531 193.617 108.422 193.758 109.25C193.898 110.078 194.133 110.805 194.461 111.43C194.789 112.039 195.234 112.516 195.797 112.859C196.359 113.203 197.062 113.375 197.906 113.375C198.734 113.375 199.422 113.203 199.969 112.859C200.531 112.516 200.977 112.039 201.305 111.43C201.633 110.805 201.867 110.078 202.008 109.25C202.148 108.422 202.219 107.531 202.219 106.578V106.086C202.219 105.164 202.148 104.297 202.008 103.484C201.867 102.656 201.633 101.93 201.305 101.305C200.977 100.664 200.531 100.164 199.969 99.8047C199.406 99.4453 198.703 99.2656 197.859 99.2656C197.031 99.2656 196.336 99.4453 195.773 99.8047C195.227 100.164 194.789 100.664 194.461 101.305C194.133 101.93 193.898 102.656 193.758 103.484C193.617 104.297 193.547 105.164 193.547 106.086ZM226.992 93.6406V99.125H211.711V93.6406H226.992ZM214.922 87.3359H222.82V110.727C222.82 111.398 222.898 111.922 223.055 112.297C223.211 112.656 223.477 112.914 223.852 113.07C224.242 113.211 224.758 113.281 225.398 113.281C225.852 113.281 226.227 113.273 226.523 113.258C226.82 113.227 227.102 113.188 227.367 113.141V118.789C226.695 119.008 225.992 119.172 225.258 119.281C224.523 119.406 223.742 119.469 222.914 119.469C221.227 119.469 219.781 119.203 218.578 118.672C217.391 118.141 216.484 117.305 215.859 116.164C215.234 115.023 214.922 113.539 214.922 111.711V87.3359ZM237.914 116.023L244.477 93.6406H252.961L242.766 122.773C242.547 123.414 242.258 124.102 241.898 124.836C241.539 125.586 241.047 126.297 240.422 126.969C239.797 127.641 238.992 128.188 238.008 128.609C237.039 129.031 235.836 129.242 234.398 129.242C233.633 129.242 233.07 129.203 232.711 129.125C232.367 129.062 231.836 128.945 231.117 128.773V123.125C231.32 123.125 231.492 123.125 231.633 123.125C231.789 123.125 231.961 123.125 232.148 123.125C232.992 123.125 233.664 123.039 234.164 122.867C234.68 122.695 235.07 122.445 235.336 122.117C235.617 121.789 235.836 121.391 235.992 120.922L237.914 116.023ZM236.25 93.6406L241.242 111.383L242.109 119.75H236.812L227.789 93.6406H236.25ZM262.992 98.5156V128.75H255.094V93.6406H262.453L262.992 98.5156ZM278.555 106.016V106.508C278.555 108.352 278.344 110.062 277.922 111.641C277.5 113.219 276.875 114.594 276.047 115.766C275.219 116.938 274.188 117.852 272.953 118.508C271.734 119.148 270.32 119.469 268.711 119.469C267.195 119.469 265.891 119.133 264.797 118.461C263.703 117.789 262.789 116.859 262.055 115.672C261.32 114.484 260.727 113.125 260.273 111.594C259.82 110.062 259.461 108.445 259.195 106.742V106.109C259.461 104.281 259.82 102.586 260.273 101.023C260.727 99.4453 261.32 98.0703 262.055 96.8984C262.789 95.7266 263.695 94.8125 264.773 94.1562C265.867 93.5 267.172 93.1719 268.688 93.1719C270.297 93.1719 271.711 93.4766 272.93 94.0859C274.164 94.6953 275.195 95.5703 276.023 96.7109C276.867 97.8359 277.5 99.1875 277.922 100.766C278.344 102.344 278.555 104.094 278.555 106.016ZM270.656 106.508V106.016C270.656 105.031 270.586 104.133 270.445 103.32C270.305 102.492 270.078 101.773 269.766 101.164C269.469 100.555 269.07 100.086 268.57 99.7578C268.07 99.4297 267.453 99.2656 266.719 99.2656C265.875 99.2656 265.164 99.3984 264.586 99.6641C264.023 99.9141 263.57 100.305 263.227 100.836C262.898 101.352 262.664 102 262.523 102.781C262.398 103.547 262.344 104.445 262.359 105.477V107.398C262.328 108.586 262.445 109.633 262.711 110.539C262.977 111.43 263.438 112.125 264.094 112.625C264.75 113.125 265.641 113.375 266.766 113.375C267.516 113.375 268.141 113.203 268.641 112.859C269.141 112.5 269.539 112.008 269.836 111.383C270.133 110.742 270.344 110.008 270.469 109.18C270.594 108.352 270.656 107.461 270.656 106.508ZM290.414 93.6406V119H282.492V93.6406H290.414ZM282.023 87.1016C282.023 85.9766 282.43 85.0547 283.242 84.3359C284.055 83.6172 285.109 83.2578 286.406 83.2578C287.703 83.2578 288.758 83.6172 289.57 84.3359C290.383 85.0547 290.789 85.9766 290.789 87.1016C290.789 88.2266 290.383 89.1484 289.57 89.8672C288.758 90.5859 287.703 90.9453 286.406 90.9453C285.109 90.9453 284.055 90.5859 283.242 89.8672C282.43 89.1484 282.023 88.2266 282.023 87.1016ZM303.047 99.0547V119H295.148V93.6406H302.555L303.047 99.0547ZM302.109 105.453L300.258 105.5C300.258 103.562 300.492 101.836 300.961 100.32C301.43 98.7891 302.094 97.4922 302.953 96.4297C303.812 95.3672 304.836 94.5625 306.023 94.0156C307.227 93.4531 308.562 93.1719 310.031 93.1719C311.203 93.1719 312.273 93.3438 313.242 93.6875C314.227 94.0312 315.07 94.5859 315.773 95.3516C316.492 96.1172 317.039 97.1328 317.414 98.3984C317.805 99.6484 318 101.195 318 103.039V119H310.055V103.016C310.055 102 309.914 101.227 309.633 100.695C309.352 100.148 308.945 99.7734 308.414 99.5703C307.883 99.3672 307.234 99.2656 306.469 99.2656C305.656 99.2656 304.969 99.4219 304.406 99.7344C303.844 100.047 303.391 100.484 303.047 101.047C302.719 101.594 302.477 102.242 302.32 102.992C302.18 103.742 302.109 104.562 302.109 105.453ZM338.32 93.6406H345.492V118.016C345.492 120.359 344.953 122.344 343.875 123.969C342.797 125.609 341.289 126.852 339.352 127.695C337.43 128.555 335.18 128.984 332.602 128.984C331.461 128.984 330.297 128.836 329.109 128.539C327.922 128.258 326.812 127.836 325.781 127.273C324.75 126.711 323.883 126.016 323.18 125.188L326.484 120.547C327.125 121.266 327.93 121.875 328.898 122.375C329.867 122.891 331.008 123.148 332.32 123.148C333.461 123.148 334.414 122.945 335.18 122.539C335.961 122.133 336.555 121.539 336.961 120.758C337.367 119.992 337.57 119.062 337.57 117.969V99.6406L338.32 93.6406ZM321.469 106.625V106.133C321.469 104.211 321.703 102.461 322.172 100.883C322.656 99.2891 323.344 97.9219 324.234 96.7812C325.141 95.625 326.234 94.7344 327.516 94.1094C328.797 93.4844 330.242 93.1719 331.852 93.1719C333.586 93.1719 335.008 93.5078 336.117 94.1797C337.242 94.8359 338.141 95.7578 338.812 96.9453C339.5 98.1328 340.031 99.5234 340.406 101.117C340.797 102.695 341.125 104.398 341.391 106.227V106.812C341.125 108.531 340.758 110.156 340.289 111.688C339.836 113.203 339.242 114.547 338.508 115.719C337.773 116.891 336.852 117.812 335.742 118.484C334.648 119.141 333.336 119.469 331.805 119.469C330.211 119.469 328.773 119.148 327.492 118.508C326.227 117.867 325.141 116.969 324.234 115.812C323.344 114.656 322.656 113.297 322.172 111.734C321.703 110.172 321.469 108.469 321.469 106.625ZM329.367 106.133V106.625C329.367 107.578 329.453 108.461 329.625 109.273C329.812 110.086 330.094 110.805 330.469 111.43C330.844 112.039 331.305 112.516 331.852 112.859C332.414 113.203 333.07 113.375 333.82 113.375C334.961 113.375 335.883 113.133 336.586 112.648C337.289 112.164 337.797 111.477 338.109 110.586C338.422 109.695 338.555 108.648 338.508 107.445V105.594C338.539 104.562 338.469 103.656 338.297 102.875C338.125 102.078 337.852 101.414 337.477 100.883C337.117 100.352 336.633 99.9531 336.023 99.6875C335.43 99.4062 334.711 99.2656 333.867 99.2656C333.133 99.2656 332.484 99.4375 331.922 99.7812C331.359 100.125 330.891 100.609 330.516 101.234C330.141 101.844 329.852 102.57 329.648 103.414C329.461 104.242 329.367 105.148 329.367 106.133Z" fill="black"/>
<path d="M1134 0H1348C1356.28 0 1363 6.71573 1363 15V148C1363 156.284 1356.28 163 1348 163H1134V0Z" fill="#F08080"/>
<path fill-rule="evenodd" clip-rule="evenodd" d="M1202.75 46.5018C1202.75 45.3973 1203.65 44.5018 1204.75 44.5018H1292.25C1293.35 44.5018 1294.25 45.3973 1294.25 46.5018V116.498C1294.25 117.603 1293.35 118.498 1292.25 118.498H1204.75C1203.65 118.498 1202.75 117.603 1202.75 116.498V46.5018ZM1206.75 48.5018V52.9963H1290.25V48.5018H1206.75ZM1290.25 56.9963H1235.19V114.498H1290.25V56.9963ZM1231.19 114.498V56.9963H1206.75V114.498H1231.19Z" fill="white"/>
<path fill-rule="evenodd" clip-rule="evenodd" d="M1209.72 62.3022C1209.72 61.1976 1210.62 60.3022 1211.72 60.3022H1225.72C1226.83 60.3022 1227.72 61.1976 1227.72 62.3022V81.6974C1227.72 82.802 1226.83 83.6974 1225.72 83.6974H1211.72C1210.62 83.6974 1209.72 82.802 1209.72 81.6974V62.3022ZM1213.72 64.3022V79.6974H1223.72V64.3022H1213.72ZM1239.33 63.1982C1239.33 62.0936 1240.22 61.1982 1241.33 61.1982H1284.25C1285.36 61.1982 1286.25 62.0936 1286.25 63.1982V109.407C1286.25 110.511 1285.36 111.407 1284.25 111.407H1241.33C1240.22 111.407 1239.33 110.511 1239.33 109.407V63.1982ZM1243.33 65.1982V107.407H1282.25V65.1982H1243.33ZM1209.56 93.4381C1209.56 92.3336 1210.46 91.4381 1211.56 91.4381H1220.48C1221.59 91.4381 1222.48 92.3336 1222.48 93.4381C1222.48 94.5427 1221.59 95.4381 1220.48 95.4381H1211.56C1210.46 95.4381 1209.56 94.5427 1209.56 93.4381ZM1209.56 100.438C1209.56 99.3335 1210.46 98.4381 1211.56 98.4381H1226.1C1227.21 98.4381 1228.1 99.3335 1228.1 100.438C1228.1 101.543 1227.21 102.438 1226.1 102.438H1211.56C1210.46 102.438 1209.56 101.543 1209.56 100.438ZM1209.56 107.438C1209.56 106.334 1210.46 105.438 1211.56 105.438H1220.48C1221.59 105.438 1222.48 106.334 1222.48 107.438C1222.48 108.543 1221.59 109.438 1220.48 109.438H1211.56C1210.46 109.438 1209.56 108.543 1209.56 107.438Z" fill="white"/>
</svg>
