<svg width="1363" height="163" viewBox="0 0 1363 163" fill="none" xmlns="http://www.w3.org/2000/svg">
<path d="M0 15C0 6.71573 6.71573 0 15 0H37V163H15C6.71573 163 0 156.284 0 148V15Z" fill="#424242"/>
<rect width="1097" height="163" transform="translate(37)" fill="#F0F0F0"/>
<path d="M101.906 53.9219L94.3945 51.2383V48.0859L104.602 52.375V54.6367L101.906 53.9219ZM94.3945 56.1719L101.918 53.4297L104.602 52.7852V55.0352L94.3945 59.3242V56.1719ZM119.836 46.8555L115.195 61H111.457L117.797 43.9375H120.176L119.836 46.8555ZM123.691 61L119.039 46.8555L118.664 43.9375H121.066L127.441 61H123.691ZM123.48 54.6484V57.4023H114.469V54.6484H123.48ZM132.762 43.9375V61H129.258V43.9375H132.762ZM142.699 57.4961C142.699 57.2539 142.629 57.0352 142.488 56.8398C142.348 56.6445 142.086 56.4648 141.703 56.3008C141.328 56.1289 140.785 55.9727 140.074 55.832C139.434 55.6914 138.836 55.5156 138.281 55.3047C137.734 55.0859 137.258 54.8242 136.852 54.5195C136.453 54.2148 136.141 53.8555 135.914 53.4414C135.688 53.0195 135.574 52.5391 135.574 52C135.574 51.4688 135.688 50.9688 135.914 50.5C136.148 50.0312 136.48 49.6172 136.91 49.2578C137.348 48.8906 137.879 48.6055 138.504 48.4023C139.137 48.1914 139.848 48.0859 140.637 48.0859C141.738 48.0859 142.684 48.2617 143.473 48.6133C144.27 48.9648 144.879 49.4492 145.301 50.0664C145.73 50.6758 145.945 51.3711 145.945 52.1523H142.57C142.57 51.8242 142.5 51.5312 142.359 51.2734C142.227 51.0078 142.016 50.8008 141.727 50.6523C141.445 50.4961 141.078 50.418 140.625 50.418C140.25 50.418 139.926 50.4844 139.652 50.6172C139.379 50.7422 139.168 50.9141 139.02 51.1328C138.879 51.3438 138.809 51.5781 138.809 51.8359C138.809 52.0312 138.848 52.207 138.926 52.3633C139.012 52.5117 139.148 52.6484 139.336 52.7734C139.523 52.8984 139.766 53.0156 140.062 53.125C140.367 53.2266 140.742 53.3203 141.188 53.4062C142.102 53.5938 142.918 53.8398 143.637 54.1445C144.355 54.4414 144.926 54.8477 145.348 55.3633C145.77 55.8711 145.98 56.5391 145.98 57.3672C145.98 57.9297 145.855 58.4453 145.605 58.9141C145.355 59.3828 144.996 59.793 144.527 60.1445C144.059 60.4883 143.496 60.7578 142.84 60.9531C142.191 61.1406 141.461 61.2344 140.648 61.2344C139.469 61.2344 138.469 61.0234 137.648 60.6016C136.836 60.1797 136.219 59.6445 135.797 58.9961C135.383 58.3398 135.176 57.668 135.176 56.9805H138.375C138.391 57.4414 138.508 57.8125 138.727 58.0938C138.953 58.375 139.238 58.5781 139.582 58.7031C139.934 58.8281 140.312 58.8906 140.719 58.8906C141.156 58.8906 141.52 58.832 141.809 58.7148C142.098 58.5898 142.316 58.4258 142.465 58.2227C142.621 58.0117 142.699 57.7695 142.699 57.4961ZM155.027 57.4961C155.027 57.2539 154.957 57.0352 154.816 56.8398C154.676 56.6445 154.414 56.4648 154.031 56.3008C153.656 56.1289 153.113 55.9727 152.402 55.832C151.762 55.6914 151.164 55.5156 150.609 55.3047C150.062 55.0859 149.586 54.8242 149.18 54.5195C148.781 54.2148 148.469 53.8555 148.242 53.4414C148.016 53.0195 147.902 52.5391 147.902 52C147.902 51.4688 148.016 50.9688 148.242 50.5C148.477 50.0312 148.809 49.6172 149.238 49.2578C149.676 48.8906 150.207 48.6055 150.832 48.4023C151.465 48.1914 152.176 48.0859 152.965 48.0859C154.066 48.0859 155.012 48.2617 155.801 48.6133C156.598 48.9648 157.207 49.4492 157.629 50.0664C158.059 50.6758 158.273 51.3711 158.273 52.1523H154.898C154.898 51.8242 154.828 51.5312 154.688 51.2734C154.555 51.0078 154.344 50.8008 154.055 50.6523C153.773 50.4961 153.406 50.418 152.953 50.418C152.578 50.418 152.254 50.4844 151.98 50.6172C151.707 50.7422 151.496 50.9141 151.348 51.1328C151.207 51.3438 151.137 51.5781 151.137 51.8359C151.137 52.0312 151.176 52.207 151.254 52.3633C151.34 52.5117 151.477 52.6484 151.664 52.7734C151.852 52.8984 152.094 53.0156 152.391 53.125C152.695 53.2266 153.07 53.3203 153.516 53.4062C154.43 53.5938 155.246 53.8398 155.965 54.1445C156.684 54.4414 157.254 54.8477 157.676 55.3633C158.098 55.8711 158.309 56.5391 158.309 57.3672C158.309 57.9297 158.184 58.4453 157.934 58.9141C157.684 59.3828 157.324 59.793 156.855 60.1445C156.387 60.4883 155.824 60.7578 155.168 60.9531C154.52 61.1406 153.789 61.2344 152.977 61.2344C151.797 61.2344 150.797 61.0234 149.977 60.6016C149.164 60.1797 148.547 59.6445 148.125 58.9961C147.711 58.3398 147.504 57.668 147.504 56.9805H150.703C150.719 57.4414 150.836 57.8125 151.055 58.0938C151.281 58.375 151.566 58.5781 151.91 58.7031C152.262 58.8281 152.641 58.8906 153.047 58.8906C153.484 58.8906 153.848 58.832 154.137 58.7148C154.426 58.5898 154.645 58.4258 154.793 58.2227C154.949 58.0117 155.027 57.7695 155.027 57.4961ZM164.062 48.3203V61H160.676V48.3203H164.062ZM160.465 45.0156C160.465 44.5234 160.637 44.1172 160.98 43.7969C161.324 43.4766 161.785 43.3164 162.363 43.3164C162.934 43.3164 163.391 43.4766 163.734 43.7969C164.086 44.1172 164.262 44.5234 164.262 45.0156C164.262 45.5078 164.086 45.9141 163.734 46.2344C163.391 46.5547 162.934 46.7148 162.363 46.7148C161.785 46.7148 161.324 46.5547 160.98 46.2344C160.637 45.9141 160.465 45.5078 160.465 45.0156ZM173.707 57.4961C173.707 57.2539 173.637 57.0352 173.496 56.8398C173.355 56.6445 173.094 56.4648 172.711 56.3008C172.336 56.1289 171.793 55.9727 171.082 55.832C170.441 55.6914 169.844 55.5156 169.289 55.3047C168.742 55.0859 168.266 54.8242 167.859 54.5195C167.461 54.2148 167.148 53.8555 166.922 53.4414C166.695 53.0195 166.582 52.5391 166.582 52C166.582 51.4688 166.695 50.9688 166.922 50.5C167.156 50.0312 167.488 49.6172 167.918 49.2578C168.355 48.8906 168.887 48.6055 169.512 48.4023C170.145 48.1914 170.855 48.0859 171.645 48.0859C172.746 48.0859 173.691 48.2617 174.48 48.6133C175.277 48.9648 175.887 49.4492 176.309 50.0664C176.738 50.6758 176.953 51.3711 176.953 52.1523H173.578C173.578 51.8242 173.508 51.5312 173.367 51.2734C173.234 51.0078 173.023 50.8008 172.734 50.6523C172.453 50.4961 172.086 50.418 171.633 50.418C171.258 50.418 170.934 50.4844 170.66 50.6172C170.387 50.7422 170.176 50.9141 170.027 51.1328C169.887 51.3438 169.816 51.5781 169.816 51.8359C169.816 52.0312 169.855 52.207 169.934 52.3633C170.02 52.5117 170.156 52.6484 170.344 52.7734C170.531 52.8984 170.773 53.0156 171.07 53.125C171.375 53.2266 171.75 53.3203 172.195 53.4062C173.109 53.5938 173.926 53.8398 174.645 54.1445C175.363 54.4414 175.934 54.8477 176.355 55.3633C176.777 55.8711 176.988 56.5391 176.988 57.3672C176.988 57.9297 176.863 58.4453 176.613 58.9141C176.363 59.3828 176.004 59.793 175.535 60.1445C175.066 60.4883 174.504 60.7578 173.848 60.9531C173.199 61.1406 172.469 61.2344 171.656 61.2344C170.477 61.2344 169.477 61.0234 168.656 60.6016C167.844 60.1797 167.227 59.6445 166.805 58.9961C166.391 58.3398 166.184 57.668 166.184 56.9805H169.383C169.398 57.4414 169.516 57.8125 169.734 58.0938C169.961 58.375 170.246 58.5781 170.59 58.7031C170.941 58.8281 171.32 58.8906 171.727 58.8906C172.164 58.8906 172.527 58.832 172.816 58.7148C173.105 58.5898 173.324 58.4258 173.473 58.2227C173.629 58.0117 173.707 57.7695 173.707 57.4961ZM185.391 48.3203V50.7109H178.008V48.3203H185.391ZM179.836 45.1914H183.211V57.1797C183.211 57.5469 183.258 57.8281 183.352 58.0234C183.453 58.2188 183.602 58.3555 183.797 58.4336C183.992 58.5039 184.238 58.5391 184.535 58.5391C184.746 58.5391 184.934 58.5312 185.098 58.5156C185.27 58.4922 185.414 58.4688 185.531 58.4453L185.543 60.9297C185.254 61.0234 184.941 61.0977 184.605 61.1523C184.27 61.207 183.898 61.2344 183.492 61.2344C182.75 61.2344 182.102 61.1133 181.547 60.8711C181 60.6211 180.578 60.2227 180.281 59.6758C179.984 59.1289 179.836 58.4102 179.836 57.5195V45.1914Z" fill="#888888"/>
<path d="M112.125 84.875V119H103.898V84.875H112.125ZM122.391 84.875V91.2266H93.8672V84.875H122.391ZM135.68 119.469C133.617 119.469 131.773 119.148 130.148 118.508C128.523 117.852 127.148 116.953 126.023 115.812C124.914 114.672 124.062 113.359 123.469 111.875C122.891 110.391 122.602 108.82 122.602 107.164V106.273C122.602 104.414 122.859 102.695 123.375 101.117C123.891 99.5234 124.656 98.1328 125.672 96.9453C126.688 95.7578 127.961 94.8359 129.492 94.1797C131.023 93.5078 132.805 93.1719 134.836 93.1719C136.633 93.1719 138.242 93.4609 139.664 94.0391C141.086 94.6172 142.289 95.4453 143.273 96.5234C144.273 97.6016 145.031 98.9062 145.547 100.438C146.078 101.969 146.344 103.688 146.344 105.594V108.805H125.625V103.859H138.633V103.25C138.648 102.406 138.5 101.688 138.188 101.094C137.891 100.5 137.453 100.047 136.875 99.7344C136.297 99.4219 135.594 99.2656 134.766 99.2656C133.906 99.2656 133.195 99.4531 132.633 99.8281C132.086 100.203 131.656 100.719 131.344 101.375C131.047 102.016 130.836 102.758 130.711 103.602C130.586 104.445 130.523 105.336 130.523 106.273V107.164C130.523 108.102 130.648 108.953 130.898 109.719C131.164 110.484 131.539 111.141 132.023 111.688C132.523 112.219 133.117 112.633 133.805 112.93C134.508 113.227 135.305 113.375 136.195 113.375C137.273 113.375 138.336 113.172 139.383 112.766C140.43 112.359 141.328 111.688 142.078 110.75L145.664 115.016C145.148 115.75 144.414 116.461 143.461 117.148C142.523 117.836 141.398 118.398 140.086 118.836C138.773 119.258 137.305 119.469 135.68 119.469ZM160.266 113.375C161 113.375 161.625 113.242 162.141 112.977C162.672 112.695 163.07 112.305 163.336 111.805C163.617 111.289 163.75 110.672 163.734 109.953H171.164C171.18 111.859 170.711 113.531 169.758 114.969C168.82 116.391 167.539 117.5 165.914 118.297C164.305 119.078 162.484 119.469 160.453 119.469C158.469 119.469 156.734 119.148 155.25 118.508C153.766 117.852 152.523 116.945 151.523 115.789C150.539 114.617 149.797 113.25 149.297 111.688C148.812 110.125 148.57 108.43 148.57 106.602V106.062C148.57 104.234 148.812 102.539 149.297 100.977C149.797 99.3984 150.539 98.0312 151.523 96.875C152.523 95.7031 153.758 94.7969 155.227 94.1562C156.711 93.5 158.438 93.1719 160.406 93.1719C162.516 93.1719 164.375 93.5703 165.984 94.3672C167.609 95.1641 168.883 96.3203 169.805 97.8359C170.727 99.3516 171.18 101.188 171.164 103.344H163.734C163.75 102.578 163.633 101.891 163.383 101.281C163.133 100.672 162.742 100.188 162.211 99.8281C161.695 99.4531 161.031 99.2656 160.219 99.2656C159.406 99.2656 158.75 99.4453 158.25 99.8047C157.75 100.164 157.367 100.664 157.102 101.305C156.852 101.93 156.68 102.648 156.586 103.461C156.508 104.273 156.469 105.141 156.469 106.062V106.602C156.469 107.539 156.508 108.422 156.586 109.25C156.68 110.062 156.859 110.781 157.125 111.406C157.391 112.016 157.773 112.5 158.273 112.859C158.773 113.203 159.438 113.375 160.266 113.375ZM182.273 83V119H174.375V83H182.273ZM181.336 105.453L179.484 105.5C179.484 103.719 179.703 102.078 180.141 100.578C180.578 99.0781 181.203 97.7734 182.016 96.6641C182.828 95.5547 183.805 94.6953 184.945 94.0859C186.086 93.4766 187.352 93.1719 188.742 93.1719C189.992 93.1719 191.133 93.3516 192.164 93.7109C193.211 94.0703 194.109 94.6484 194.859 95.4453C195.625 96.2422 196.211 97.2812 196.617 98.5625C197.039 99.8438 197.25 101.406 197.25 103.25V119H189.305V103.203C189.305 102.172 189.156 101.375 188.859 100.812C188.578 100.234 188.172 99.8359 187.641 99.6172C187.109 99.3828 186.461 99.2656 185.695 99.2656C184.773 99.2656 184.023 99.4219 183.445 99.7344C182.867 100.047 182.422 100.484 182.109 101.047C181.812 101.594 181.609 102.242 181.5 102.992C181.391 103.742 181.336 104.562 181.336 105.453ZM231.539 109.93C231.539 109.398 231.461 108.922 231.305 108.5C231.148 108.062 230.859 107.656 230.438 107.281C230.016 106.906 229.406 106.531 228.609 106.156C227.828 105.766 226.797 105.359 225.516 104.938C224.016 104.438 222.57 103.875 221.18 103.25C219.789 102.609 218.547 101.867 217.453 101.023C216.359 100.164 215.492 99.1641 214.852 98.0234C214.211 96.8672 213.891 95.5234 213.891 93.9922C213.891 92.5234 214.219 91.2031 214.875 90.0312C215.531 88.8438 216.445 87.8359 217.617 87.0078C218.805 86.1641 220.195 85.5234 221.789 85.0859C223.383 84.6328 225.125 84.4062 227.016 84.4062C229.516 84.4062 231.719 84.8438 233.625 85.7188C235.547 86.5781 237.047 87.8047 238.125 89.3984C239.219 90.9766 239.766 92.8438 239.766 95H231.586C231.586 94.1406 231.406 93.3828 231.047 92.7266C230.703 92.0703 230.18 91.5547 229.477 91.1797C228.773 90.8047 227.891 90.6172 226.828 90.6172C225.797 90.6172 224.93 90.7734 224.227 91.0859C223.523 91.3984 222.992 91.8203 222.633 92.3516C222.273 92.8672 222.094 93.4375 222.094 94.0625C222.094 94.5781 222.234 95.0469 222.516 95.4688C222.812 95.875 223.227 96.2578 223.758 96.6172C224.305 96.9766 224.961 97.3203 225.727 97.6484C226.508 97.9766 227.383 98.2969 228.352 98.6094C230.164 99.1875 231.773 99.8359 233.18 100.555C234.602 101.258 235.797 102.062 236.766 102.969C237.75 103.859 238.492 104.875 238.992 106.016C239.508 107.156 239.766 108.445 239.766 109.883C239.766 111.414 239.469 112.773 238.875 113.961C238.281 115.148 237.43 116.156 236.32 116.984C235.211 117.797 233.883 118.414 232.336 118.836C230.789 119.258 229.062 119.469 227.156 119.469C225.406 119.469 223.68 119.25 221.977 118.812C220.289 118.359 218.758 117.672 217.383 116.75C216.008 115.812 214.906 114.617 214.078 113.164C213.266 111.695 212.859 109.953 212.859 107.938H221.109C221.109 108.938 221.242 109.781 221.508 110.469C221.773 111.156 222.164 111.711 222.68 112.133C223.195 112.539 223.828 112.836 224.578 113.023C225.328 113.195 226.188 113.281 227.156 113.281C228.203 113.281 229.047 113.133 229.688 112.836C230.328 112.523 230.797 112.117 231.094 111.617C231.391 111.102 231.539 110.539 231.539 109.93ZM256.992 93.6406V99.125H241.711V93.6406H256.992ZM244.922 87.3359H252.82V110.727C252.82 111.398 252.898 111.922 253.055 112.297C253.211 112.656 253.477 112.914 253.852 113.07C254.242 113.211 254.758 113.281 255.398 113.281C255.852 113.281 256.227 113.273 256.523 113.258C256.82 113.227 257.102 113.188 257.367 113.141V118.789C256.695 119.008 255.992 119.172 255.258 119.281C254.523 119.406 253.742 119.469 252.914 119.469C251.227 119.469 249.781 119.203 248.578 118.672C247.391 118.141 246.484 117.305 245.859 116.164C245.234 115.023 244.922 113.539 244.922 111.711V87.3359ZM273.305 112.625V102.172C273.305 101.453 273.203 100.836 273 100.32C272.797 99.8047 272.477 99.4062 272.039 99.125C271.602 98.8281 271.016 98.6797 270.281 98.6797C269.688 98.6797 269.18 98.7812 268.758 98.9844C268.336 99.1875 268.016 99.4922 267.797 99.8984C267.578 100.305 267.469 100.82 267.469 101.445H259.57C259.57 100.273 259.828 99.1875 260.344 98.1875C260.875 97.1719 261.625 96.2891 262.594 95.5391C263.578 94.7891 264.75 94.2109 266.109 93.8047C267.484 93.3828 269.016 93.1719 270.703 93.1719C272.719 93.1719 274.516 93.5078 276.094 94.1797C277.688 94.8516 278.945 95.8594 279.867 97.2031C280.789 98.5312 281.25 100.203 281.25 102.219V112.602C281.25 114.258 281.344 115.516 281.531 116.375C281.719 117.219 281.984 117.961 282.328 118.602V119H274.406C274.031 118.219 273.75 117.266 273.562 116.141C273.391 115 273.305 113.828 273.305 112.625ZM274.266 103.508L274.312 107.727H270.82C270.086 107.727 269.461 107.828 268.945 108.031C268.445 108.234 268.039 108.516 267.727 108.875C267.43 109.219 267.211 109.609 267.07 110.047C266.945 110.484 266.883 110.945 266.883 111.43C266.883 111.898 266.992 112.32 267.211 112.695C267.445 113.055 267.758 113.336 268.148 113.539C268.539 113.742 268.977 113.844 269.461 113.844C270.336 113.844 271.078 113.68 271.688 113.352C272.312 113.008 272.789 112.594 273.117 112.109C273.445 111.625 273.609 111.172 273.609 110.75L275.344 113.984C275.031 114.609 274.672 115.242 274.266 115.883C273.875 116.523 273.383 117.117 272.789 117.664C272.211 118.195 271.5 118.633 270.656 118.977C269.812 119.305 268.789 119.469 267.586 119.469C266.023 119.469 264.586 119.148 263.273 118.508C261.977 117.867 260.938 116.977 260.156 115.836C259.375 114.68 258.984 113.352 258.984 111.852C258.984 110.539 259.219 109.367 259.688 108.336C260.172 107.305 260.898 106.43 261.867 105.711C262.836 104.992 264.07 104.445 265.57 104.07C267.07 103.695 268.836 103.508 270.867 103.508H274.266ZM296.344 113.375C297.078 113.375 297.703 113.242 298.219 112.977C298.75 112.695 299.148 112.305 299.414 111.805C299.695 111.289 299.828 110.672 299.812 109.953H307.242C307.258 111.859 306.789 113.531 305.836 114.969C304.898 116.391 303.617 117.5 301.992 118.297C300.383 119.078 298.562 119.469 296.531 119.469C294.547 119.469 292.812 119.148 291.328 118.508C289.844 117.852 288.602 116.945 287.602 115.789C286.617 114.617 285.875 113.25 285.375 111.688C284.891 110.125 284.648 108.43 284.648 106.602V106.062C284.648 104.234 284.891 102.539 285.375 100.977C285.875 99.3984 286.617 98.0312 287.602 96.875C288.602 95.7031 289.836 94.7969 291.305 94.1562C292.789 93.5 294.516 93.1719 296.484 93.1719C298.594 93.1719 300.453 93.5703 302.062 94.3672C303.688 95.1641 304.961 96.3203 305.883 97.8359C306.805 99.3516 307.258 101.188 307.242 103.344H299.812C299.828 102.578 299.711 101.891 299.461 101.281C299.211 100.672 298.82 100.188 298.289 99.8281C297.773 99.4531 297.109 99.2656 296.297 99.2656C295.484 99.2656 294.828 99.4453 294.328 99.8047C293.828 100.164 293.445 100.664 293.18 101.305C292.93 101.93 292.758 102.648 292.664 103.461C292.586 104.273 292.547 105.141 292.547 106.062V106.602C292.547 107.539 292.586 108.422 292.664 109.25C292.758 110.062 292.938 110.781 293.203 111.406C293.469 112.016 293.852 112.5 294.352 112.859C294.852 113.203 295.516 113.375 296.344 113.375ZM318.586 82.9766V119H310.688V82.9766H318.586ZM334.805 93.6406L323.789 106.555L318.023 112.32L314.578 107.305L319.383 101.047L325.336 93.6406H334.805ZM326.344 119L319.57 107.445L325.406 103.297L335.391 119H326.344Z" fill="black"/>
<path d="M1134 0H1348C1356.28 0 1363 6.71573 1363 15V148C1363 156.284 1356.28 163 1348 163H1134V0Z" fill="#F08080"/>
<path fill-rule="evenodd" clip-rule="evenodd" d="M1218.75 53C1218.62 53 1218.49 53.0527 1218.4 53.1464C1218.3 53.2402 1218.25 53.3674 1218.25 53.5V109.5C1218.25 109.633 1218.3 109.76 1218.4 109.854C1218.49 109.947 1218.62 110 1218.75 110H1278.25C1278.38 110 1278.51 109.947 1278.6 109.854C1278.7 109.76 1278.75 109.633 1278.75 109.5V64C1278.75 63.8674 1278.7 63.7402 1278.6 63.6464C1278.51 63.5527 1278.38 63.5 1278.25 63.5H1248.5C1247.61 63.5 1246.77 63.1045 1246.2 62.4206L1238.34 53H1218.75ZM1214.15 48.9038C1215.37 47.6848 1217.03 47 1218.75 47H1239.75C1240.64 47 1241.48 47.3955 1242.05 48.0794L1249.91 57.5H1278.25C1279.97 57.5 1281.63 58.1848 1282.85 59.4038C1284.07 60.6228 1284.75 62.2761 1284.75 64V109.5C1284.75 111.224 1284.07 112.877 1282.85 114.096C1281.63 115.315 1279.97 116 1278.25 116H1218.75C1217.03 116 1215.37 115.315 1214.15 114.096C1212.93 112.877 1212.25 111.224 1212.25 109.5V53.5C1212.25 51.7761 1212.93 50.1228 1214.15 48.9038Z" fill="white"/>
<path fill-rule="evenodd" clip-rule="evenodd" d="M1243.97 75.5251C1245.34 76.892 1245.34 79.108 1243.97 80.4749L1237.7 86.75L1243.97 93.0251C1245.34 94.392 1245.34 96.608 1243.97 97.9749C1242.61 99.3417 1240.39 99.3417 1239.03 97.9749L1230.28 89.2249C1228.91 87.858 1228.91 85.642 1230.28 84.2751L1239.03 75.5251C1240.39 74.1583 1242.61 74.1583 1243.97 75.5251Z" fill="white"/>
<path fill-rule="evenodd" clip-rule="evenodd" d="M1252.28 97.9749C1250.91 96.608 1250.91 94.392 1252.28 93.0251L1258.55 86.75L1252.28 80.4749C1250.91 79.108 1250.91 76.892 1252.28 75.5251C1253.64 74.1583 1255.86 74.1583 1257.22 75.5251L1265.97 84.2751C1267.34 85.642 1267.34 87.858 1265.97 89.2249L1257.22 97.9749C1255.86 99.3417 1253.64 99.3417 1252.28 97.9749Z" fill="white"/>
</svg>
